/* XPM */
static char *result[] = {
/* columns rows colors chars-per-pixel */
"40 40 123 2 ",
"   c #3E3C3C",
".  c #534D4D",
"X  c #595252",
"o  c #585151",
"O  c #595151",
"+  c #575151",
"@  c #494747",
"#  c #393939",
"$  c #514C4C",
"%  c #7E7070",
"&  c #877878",
"*  c #877777",
"=  c #837676",
"-  c #686666",
";  c gray27",
":  c #534E4E",
">  c #837474",
",  c #8C7C7C",
"<  c #8B7B7B",
"1  c #8C7B7B",
"2  c #877A7A",
"3  c #6C6969",
"4  c gray28",
"5  c #827474",
"6  c #6B6969",
"7  c #464747",
"8  c #524E4E",
"9  c #464646",
"0  c #8A7B7C",
"q  c #897A7D",
"w  c #8C7B7A",
"e  c #626EAA",
"r  c #4B63C2",
"t  c #717096",
"y  c #887A7E",
"u  c #857A81",
"i  c #817A87",
"p  c #6673A7",
"a  c #2E5FE8",
"s  c #1D50F7",
"d  c #5E68AB",
"f  c #8C7C79",
"g  c #596BB4",
"h  c #416AD4",
"j  c #3C71DF",
"k  c #2C6AF1",
"l  c #215CF9",
"z  c #1E51F6",
"x  c #5F68AB",
"c  c #877A7E",
"v  c #5A6BB3",
"b  c #466BCF",
"n  c #4A72CE",
"m  c #436ED5",
"M  c #265EF2",
"N  c #897A7E",
"B  c #877A80",
"V  c #897B7E",
"C  c #767694",
"Z  c #2E60E8",
"A  c #1D51F7",
"S  c #8B7B7A",
"D  c #8D7B79",
"F  c #79778F",
"G  c #2F60E7",
"H  c #1E51F7",
"J  c #8C7B79",
"K  c #797790",
"L  c #1E52F7",
"P  c #2F61E7",
"I  c #8E7B78",
"U  c #7A778F",
"Y  c #3061E7",
"T  c #1E53F7",
"R  c #6069AA",
"E  c #8E7C78",
"W  c #8D7C79",
"Q  c #8C7C7A",
"!  c #897A7C",
"~  c #767492",
"^  c #6D739D",
"/  c #70779C",
"(  c #6274AC",
")  c #2C60EC",
"_  c #4B5FC0",
"`  c #6B6A9C",
"'  c #68669D",
"]  c #6D6798",
"[  c #867880",
"{  c #867980",
"}  c #4764C8",
"|  c #2B62EF",
" . c #306EEE",
".. c #2F6DEF",
"X. c #2660F4",
"o. c #2153F5",
"O. c #204AF0",
"+. c #1F41ED",
"@. c #1936EE",
"#. c #2639DC",
"$. c #7B708A",
"%. c #717299",
"&. c #6672A8",
"*. c #6876A7",
"=. c #6771A7",
"-. c #656DA7",
";. c #6369A7",
":. c #6265A7",
">. c #5F61A7",
",. c #6462A0",
"<. c #857781",
"1. c #8D7C7A",
"2. c #7F7373",
"3. c #847979",
"4. c #666363",
"5. c #6D6A6A",
"6. c #606060",
"7. c #434343",
"8. c gray24",
"9. c #444444",
"0. c #484848",
"q. c #474848",
"w. c white",
/* pixels */
"  . X o o o o o o o o o o o o o o o o o o o o o o o o o o o o o o o o o O + @ # ",
"$ % & * * * * * * * * * * * * * * * * * * * * * * * * * * * * * * * * * * = - ; ",
": > , < < < < < < < < < < < < < < < < < < < < < < < < < < < < < < < < < 1 2 3 4 ",
": 5 , < < < < < < < < < < < < < < < < < < < < < < < < < < < < < < < < < < 2 6 7 ",
": 5 , < < < < < < < < < < < < < < < < < < < < < < < < < < < < < < < < < < 2 6 7 ",
"8 5 , < < < < < < < < < < < < < < < < < < < < < < < < < < < < < < < < < < 2 6 9 ",
": 5 , < < < < < < < < < < < < < < < < < < < < < < < < < < < < < < < < < < 2 6 7 ",
": 5 , < < < < < < < < < < < < < < < < < < < < < < < < < < < < < < < < < < 2 6 7 ",
": 5 , < < < < < < < < < < < < < < < < < < < < < < < < < < < < < < < < < < 2 6 7 ",
": 5 , < < < < < < < < < < < < < < < < < < < < < < < < < < < < < < < < < < 2 6 7 ",
": 5 , < < < < < < < < < < < < < < < < < < < < < < < < < < < < < < < < < < 2 6 7 ",
": 5 , < < < < < < < < < < < < < < < < 0 q 0 < < < < < < < < < < < < < < < 2 6 9 ",
"8 5 , < < < < < < < < < < < < < w w q e r t w < < < < < < < < < < < < < < 2 6 9 ",
": 5 , < < < < < < < < < < < < y u i p a s d f < < < < < < < < < < < < < < 2 6 7 ",
": 5 , < < < < < < < < < < < y g h j k l z x f < < < < < < < < < < < < < < 2 6 7 ",
": 5 , < < < < < < < < < < < c v b n m M z x f < < < < < < < < < < < < < < 2 6 7 ",
": 5 , < < < < < < < < < < < < N B V C Z A x f < < < < < < < < < < < < < < 2 6 7 ",
": 5 , < < < < < < < < < < < < < S D F G H x f < < < < < < < < < < < < < < 2 6 7 ",
": 5 , < < < < < < < < < < < < < < J K G L x f < < < < < < < < < < < < < < 2 6 9 ",
": 5 , < < < < < < < < < < < < < < J K G L x f < < < < < < < < < < < < < < 2 6 9 ",
": 5 , < < < < < < < < < < < < < < J K P L x f < < < < < < < < < < < < < < 2 6 7 ",
": 5 , < < < < < < < < < < < < < < J K P L x f < < < < < < < < < < < < < < 2 6 7 ",
": 5 , < < < < < < < < < < < < < < J K P L x f < < < < < < < < < < < < < < 2 6 7 ",
": 5 , < < < < < < < < < < < < w J I U Y T R E W Q < < < < < < < < < < < < 2 6 7 ",
": 5 , < < < < < < < < < < < ! ~ ^ / ( ) L _ ` ' ] [ < < < < < < < < < < < 2 6 7 ",
": 5 , < < < < < < < < < < < { } |  ...X.o.O.+.@.#.$.Q < < < < < < < < < < 2 6 9 ",
": 5 , < < < < < < < < < < < q %.&.*.*.=.-.;.:.>.,.<.< < < < < < < < < < < 2 6 9 ",
": 5 , < < < < < < < < < < < < w w w w w w Q Q 1.Q < < < < < < < < < < < < 2 6 7 ",
": 5 , < < < < < < < < < < < < < < < < < < < < < < < < < < < < < < < < < < 2 6 7 ",
": 5 , < < < < < < < < < < < < < < < < < < < < < < < < < < < < < < < < < < 2 6 7 ",
": 5 , < < < < < < < < < < < < < < < < < < < < < < < < < < < < < < < < < < 2 6 7 ",
": 5 , < < < < < < < < < < < < < < < < < < < < < < < < < < < < < < < < < < 2 6 7 ",
"8 5 , < < < < < < < < < < < < < < < < < < < < < < < < < < < < < < < < < < 2 6 9 ",
": 5 , < < < < < < < < < < < < < < < < < < < < < < < < < < < < < < < < < < 2 6 9 ",
": 5 , < < < < < < < < < < < < < < < < < < < < < < < < < < < < < < < < < < 2 6 7 ",
": 5 , < < < < < < < < < < < < < < < < < < < < < < < < < < < < < < < < < < 2 6 7 ",
": > , < < < < < < < < < < < < < < < < < < < < < < < < < < < < < < < < < < 2 6 7 ",
"8 2.2 2 2 2 2 2 2 2 2 2 2 2 2 2 2 2 2 2 2 2 2 2 2 2 2 2 2 2 2 2 2 2 2 2 2 3.6 4 ",
"4 4.5.3 3 3 3 3 3 3 3 3 3 3 3 3 3 3 3 3 3 3 3 3 3 3 3 3 3 3 3 3 3 3 3 3 3 3 6.7.",
"8.9.0.q.4 q.q.q.q.q.q.4 q.q.q.q.q.q.4 q.q.q.q.q.q.4 q.q.q.q.q.4 4 4 q.q.q.0.9.8."
};
