/* XPM */
static char *_1d5fda45f7f4ab89e30d12b6cd9dab9RyyMrG0kVNRKBuSd[] = {
/* columns rows colors chars-per-pixel */
"40 40 161 2 ",
"   c #3E3C3C",
".  c #534D4D",
"X  c #595252",
"o  c #585151",
"O  c #595151",
"+  c #575151",
"@  c #494747",
"#  c #393939",
"$  c #514C4C",
"%  c #7E7070",
"&  c #877878",
"*  c #877777",
"=  c #837676",
"-  c #686666",
";  c gray27",
":  c #534E4E",
">  c #837474",
",  c #8C7C7C",
"<  c #8B7B7B",
"1  c #8C7B7B",
"2  c #877A7A",
"3  c #6C6969",
"4  c gray28",
"5  c #827474",
"6  c #6B6969",
"7  c #464747",
"8  c #524E4E",
"9  c #464646",
"0  c #8B7A7B",
"q  c #8B7A7C",
"w  c #8A7C7A",
"e  c #897F78",
"r  c #888177",
"t  c #887F78",
"y  c #8A7D7A",
"u  c #8B7C7B",
"i  c #838B70",
"p  c #78A161",
"a  c #70AE57",
"s  c #6BB553",
"d  c #69B652",
"f  c #6AB356",
"g  c #6EAB5D",
"h  c #75A066",
"j  c #7E9070",
"k  c #878178",
"l  c #6CBC50",
"z  c #5BDF38",
"x  c #5CD63D",
"c  c #60C945",
"v  c #65BD4E",
"b  c #68B554",
"n  c #69B358",
"m  c #69B45A",
"M  c #6DAE62",
"N  c #789E6D",
"B  c #858678",
"V  c #6FB653",
"C  c #6BBC4F",
"Z  c #799E63",
"A  c #818C6F",
"S  c #858574",
"D  c #878276",
"F  c #858575",
"G  c #7D926E",
"H  c #71A866",
"J  c #72AA69",
"K  c #7C9A73",
"L  c #897F7A",
"P  c #8B7C7A",
"I  c #868475",
"U  c #8C7A7C",
"Y  c #7E9370",
"T  c #73A86A",
"R  c #79A073",
"E  c #87857A",
"W  c #808F72",
"Q  c #73A86B",
"!  c #897E79",
"~  c #789B6C",
"^  c #72A96A",
"/  c #7B9C73",
"(  c #89817A",
")  c #7C946D",
"_  c #6EAC63",
"`  c #73A76A",
"'  c #828E76",
"]  c #789968",
"[  c #6BB25C",
"{  c #7D9571",
"}  c #897E7A",
"|  c #848674",
" . c #71A65F",
".. c #65BA54",
"X. c #6BB15C",
"o. c #7C956E",
"O. c #7E936B",
"+. c #69B653",
"@. c #61C34C",
"#. c #6BB05A",
"$. c #7F8F6F",
"%. c #868474",
"&. c #73A85C",
"*. c #5FC847",
"=. c #70A95C",
"-. c #848774",
";. c #8A7D79",
":. c #7D9768",
">. c #68C24A",
",. c #5CD53D",
"<. c #63C349",
"1. c #789B65",
"2. c #81906D",
"3. c #61D440",
"4. c #59E236",
"5. c #5DD33E",
"6. c #6DB056",
"7. c #789C65",
"8. c #7A9868",
"9. c #7B966A",
"0. c #7D936E",
"q. c #7F9071",
"w. c #818E74",
"e. c #848B78",
"r. c #87877B",
"t. c #8A7D7B",
"y. c #7E9569",
"u. c #5FDC3B",
"i. c #5BDE38",
"p. c #5ECD43",
"a. c #60C748",
"s. c #62C04E",
"d. c #66B954",
"f. c #6AB35C",
"g. c #6FAD63",
"h. c #74A66B",
"j. c #7AA073",
"k. c #81967B",
"l. c #8A807C",
"z. c #7C9D65",
"x. c #7A9E64",
"c. c #7B9B65",
"v. c #7B9967",
"b. c #7B9769",
"n. c #7C946B",
"m. c #7D916D",
"M. c #818D72",
"N. c #838B75",
"B. c #858878",
"V. c #87857B",
"C. c #7F7373",
"Z. c #847979",
"A. c #666363",
"S. c #6D6A6A",
"D. c #606060",
"F. c #434343",
"G. c gray24",
"H. c #444444",
"J. c #484848",
"K. c #474848",
"L. c white",
/* pixels */
"  . X o o o o o o o o o o o o o o o o o o o o o o o o o o o o o o o o o O + @ # ",
"$ % & * * * * * * * * * * * * * * * * * * * * * * * * * * * * * * * * * * = - ; ",
": > , < < < < < < < < < < < < < < < < < < < < < < < < < < < < < < < < < 1 2 3 4 ",
": 5 , < < < < < < < < < < < < < < < < < < < < < < < < < < < < < < < < < < 2 6 7 ",
": 5 , < < < < < < < < < < < < < < < < < < < < < < < < < < < < < < < < < < 2 6 7 ",
"8 5 , < < < < < < < < < < < < < < < < < < < < < < < < < < < < < < < < < < 2 6 9 ",
": 5 , < < < < < < < < < < < < < < < < < < < < < < < < < < < < < < < < < < 2 6 7 ",
": 5 , < < < < < < < < < < < < < < < < < < < < < < < < < < < < < < < < < < 2 6 7 ",
": 5 , < < < < < < < < < < < < < < < < < < < < < < < < < < < < < < < < < < 2 6 7 ",
": 5 , < < < < < < < < < < < < < < < < < < < < < < < < < < < < < < < < < < 2 6 7 ",
": 5 , < < < < < < < < < < < < < < < 0 0 < < < < < < < < < < < < < < < < < 2 6 7 ",
": 5 , < < < < < < < < < < < q 0 w e r r t y < < < < < < < < < < < < < < < 2 6 9 ",
"8 5 , < < < < < < < < < < u i p a s d f g h j k < < < < < < < < < < < < < 2 6 9 ",
": 5 , < < < < < < < < < < e l z x c v b n m M N B < < < < < < < < < < < < 2 6 7 ",
": 5 , < < < < < < < < < < e V C Z A S D F G H J K L < < < < < < < < < < < 2 6 7 ",
": 5 , < < < < < < < < < < P I e q U U 0 U < Y T R E 0 < < < < < < < < < < 2 6 7 ",
": 5 , < < < < < < < < < < < 0 < < < < < < 0 W Q R E 0 < < < < < < < < < < 2 6 7 ",
": 5 , < < < < < < < < < < < < < < < < < < ! ~ ^ / ( < < < < < < < < < < < 2 6 7 ",
": 5 , < < < < < < < < < < < < < < < < < y ) _ ` ' u < < < < < < < < < < < 2 6 9 ",
": 5 , < < < < < < < < < < < < < < < 0 t ] [ M { } < < < < < < < < < < < < 2 6 9 ",
": 5 , < < < < < < < < < < < < < < 0 |  ...X.o.} < < < < < < < < < < < < < 2 6 7 ",
": 5 , < < < < < < < < < < < < 0 y O.+.@.#.$.w < < < < < < < < < < < < < < 2 6 7 ",
": 5 , < < < < < < < < < < < U %.&.c *.=.-.< < < < < < < < < < < < < < < < 2 6 7 ",
": 5 , < < < < < < < < < < ;.:.>.,.<.1.e U 0 0 < < < < < < < < < < < < < < 2 6 7 ",
": 5 , < < < < < < < < < q 2.3.4.5.6.7.8.9.0.q.w.e.r.t.< < < < < < < < < < 2 6 7 ",
": 5 , < < < < < < < < < U y.u.i.,.p.a.s.d.f.g.h.j.k.l.< < < < < < < < < < 2 6 9 ",
": 5 , < < < < < < < < < < I z.x.c.v.b.n.m.$.M.N.B.V.t.< < < < < < < < < < 2 6 9 ",
": 5 , < < < < < < < < < < < U U U U U q 0 0 0 0 < < < < < < < < < < < < < 2 6 7 ",
": 5 , < < < < < < < < < < < < < < < < < < < < < < < < < < < < < < < < < < 2 6 7 ",
": 5 , < < < < < < < < < < < < < < < < < < < < < < < < < < < < < < < < < < 2 6 7 ",
": 5 , < < < < < < < < < < < < < < < < < < < < < < < < < < < < < < < < < < 2 6 7 ",
": 5 , < < < < < < < < < < < < < < < < < < < < < < < < < < < < < < < < < < 2 6 7 ",
"8 5 , < < < < < < < < < < < < < < < < < < < < < < < < < < < < < < < < < < 2 6 9 ",
": 5 , < < < < < < < < < < < < < < < < < < < < < < < < < < < < < < < < < < 2 6 9 ",
": 5 , < < < < < < < < < < < < < < < < < < < < < < < < < < < < < < < < < < 2 6 7 ",
": 5 , < < < < < < < < < < < < < < < < < < < < < < < < < < < < < < < < < < 2 6 7 ",
": > , < < < < < < < < < < < < < < < < < < < < < < < < < < < < < < < < < < 2 6 7 ",
"8 C.2 2 2 2 2 2 2 2 2 2 2 2 2 2 2 2 2 2 2 2 2 2 2 2 2 2 2 2 2 2 2 2 2 2 2 Z.6 4 ",
"4 A.S.3 3 3 3 3 3 3 3 3 3 3 3 3 3 3 3 3 3 3 3 3 3 3 3 3 3 3 3 3 3 3 3 3 3 3 D.F.",
"G.H.J.K.4 K.K.K.K.K.K.4 K.K.K.K.K.K.4 K.K.K.K.K.K.4 K.K.K.K.K.4 4 4 K.K.K.J.H.G."
};
