/* XPM */
static char *d1e985e040024559eb03e693a69b7175xg5FphMvN5c6OGby[] = {
/* columns rows colors chars-per-pixel */
"40 40 158 2 ",
"   c #3E3C3C",
".  c #534D4D",
"X  c #595252",
"o  c #585151",
"O  c #595151",
"+  c #575151",
"@  c #494747",
"#  c #393939",
"$  c #514C4C",
"%  c #7E7070",
"&  c #877878",
"*  c #877777",
"=  c #837676",
"-  c #686666",
";  c gray27",
":  c #534E4E",
">  c #837474",
",  c #8C7C7C",
"<  c #8B7B7B",
"1  c #8C7B7B",
"2  c #877A7A",
"3  c #6C6969",
"4  c gray28",
"5  c #827474",
"6  c #6B6969",
"7  c #464747",
"8  c #524E4E",
"9  c #464646",
"0  c #8B7A7B",
"q  c #8A7A7B",
"w  c #8A7A7C",
"e  c #8C7C7B",
"r  c #8E7F79",
"t  c #908178",
"y  c #8F8078",
"u  c #8D7E7A",
"i  c #968873",
"p  c #AAA065",
"a  c #B6AE5C",
"s  c #BCB756",
"d  c #BDB955",
"f  c #BAB658",
"g  c #B3AF5E",
"h  c #A9A466",
"j  c #9E966F",
"k  c #938677",
"l  c #8C7C7A",
"z  c #BBB35A",
"x  c #E2E23F",
"c  c #DBDB41",
"v  c #D0CE49",
"b  c #C4C250",
"n  c #BCB857",
"m  c #B8B55B",
"M  c #B6B55E",
"N  c #B2B163",
"B  c #A7A56C",
"V  c #978E77",
"C  c #B9B15B",
"Z  c #C9C350",
"A  c #ADA362",
"S  c #9C906E",
"D  c #948774",
"F  c #918376",
"G  c #928476",
"H  c #988D72",
"J  c #A7A26A",
"K  c #ABAB6B",
"L  c #A2A074",
"P  c #90847A",
"I  c #938476",
"U  c #908177",
"Y  c #968B75",
"T  c #A9A86C",
"R  c #A3A373",
"E  c #93897A",
"W  c #9B9271",
"Q  c #AAAA6C",
"!  c #8C7D7A",
"~  c #948674",
"^  c #968A72",
"/  c #998E71",
"(  c #A39B6B",
")  c #ADAB66",
"_  c #978D77",
"`  c #938575",
"'  c #C2C053",
"]  c #BDBC57",
"[  c #B8B85C",
"{  c #AAA667",
"}  c #968C75",
"|  c #908277",
" . c #ADA561",
".. c #B2AC5F",
"X. c #AFAA61",
"o. c #B0AC62",
"O. c #AEAC65",
"+. c #A39F6E",
"@. c #958B77",
"#. c #A9A96C",
"$. c #A2A174",
"%. c #92887A",
"&. c #8F8079",
"*. c #A4A06F",
"=. c #A4A473",
"-. c #97927A",
";. c #A39F70",
":. c #98927A",
">. c #8C7D7B",
",. c #918277",
"<. c #A0936D",
"1. c #998F73",
"2. c #A8A76D",
"3. c #958C7A",
"4. c #9D906F",
"5. c #D9D647",
"6. c #CDC94D",
"7. c #B5AD5D",
"8. c #A49A68",
"9. c #998D70",
"0. c #9C916F",
"q. c #A49E6A",
"w. c #ADAC66",
"e. c #9E9A75",
"r. c #8E817A",
"t. c #998B72",
"y. c #D0CC4D",
"u. c #DFDE41",
"i. c #DBDB42",
"p. c #D3D246",
"a. c #CAC94C",
"s. c #C3C152",
"d. c #BEBD57",
"f. c #B8B85D",
"g. c #AEAC66",
"h. c #9F9971",
"j. c #908379",
"k. c #A2966B",
"l. c #ABA164",
"z. c #B1A95F",
"x. c #B1AB5E",
"c. c #AEA761",
"v. c #A7A067",
"b. c #9E946E",
"n. c #948775",
"m. c #8D7D7A",
"M. c #8B7B7A",
"N. c #7F7373",
"B. c #847979",
"V. c #666363",
"C. c #6D6A6A",
"Z. c #606060",
"A. c #434343",
"S. c gray24",
"D. c #444444",
"F. c #484848",
"G. c #474848",
"H. c white",
/* pixels */
"  . X o o o o o o o o o o o o o o o o o o o o o o o o o o o o o o o o o O + @ # ",
"$ % & * * * * * * * * * * * * * * * * * * * * * * * * * * * * * * * * * * = - ; ",
": > , < < < < < < < < < < < < < < < < < < < < < < < < < < < < < < < < < 1 2 3 4 ",
": 5 , < < < < < < < < < < < < < < < < < < < < < < < < < < < < < < < < < < 2 6 7 ",
": 5 , < < < < < < < < < < < < < < < < < < < < < < < < < < < < < < < < < < 2 6 7 ",
"8 5 , < < < < < < < < < < < < < < < < < < < < < < < < < < < < < < < < < < 2 6 9 ",
": 5 , < < < < < < < < < < < < < < < < < < < < < < < < < < < < < < < < < < 2 6 7 ",
": 5 , < < < < < < < < < < < < < < < < < < < < < < < < < < < < < < < < < < 2 6 7 ",
": 5 , < < < < < < < < < < < < < < < < < < < < < < < < < < < < < < < < < < 2 6 7 ",
": 5 , < < < < < < < < < < < < < < < < < < < < < < < < < < < < < < < < < < 2 6 7 ",
": 5 , < < < < < < < < < < < < < < < 0 0 < < < < < < < < < < < < < < < < < 2 6 7 ",
": 5 , < < < < < < < < < < < q w e r t t y u < < < < < < < < < < < < < < < 2 6 9 ",
"8 5 , < < < < < < < < < < < i p a s d f g h j k e < < < < < < < < < < < < 2 6 9 ",
": 5 , < < < < < < < < < < l z x c v b n m M N B V e < < < < < < < < < < < 2 6 7 ",
": 5 , < < < < < < < < < < l C Z A S D F G H J K L P < < < < < < < < < < < 2 6 7 ",
": 5 , < < < < < < < < < < < I U q w w 0 q w Y T R E < < < < < < < < < < < 2 6 7 ",
": 5 , < < < < < < < < < < < 0 < < < q w w l W Q L P < < < < < < < < < < < 2 6 7 ",
": 5 , < < < < < < < < < < < < < < ! ~ ^ / ( ) B _ e < < < < < < < < < < < 2 6 7 ",
": 5 , < < < < < < < < < < < < < 0 ` s ' ] [ { } e < < < < < < < < < < < < 2 6 9 ",
": 5 , < < < < < < < < < < < < < < |  ...X.o.O.+.@.e < < < < < < < < < < < 2 6 9 ",
": 5 , < < < < < < < < < < < < < < < ! ! u | j #.$.%.< < < < < < < < < < < 2 6 7 ",
": 5 , < < < < < < < < < < < < < < < < < < 0 &.*.=.-.e < < < < < < < < < < 2 6 7 ",
": 5 , < < < < < < < < < < < w q < < < < < < r ;.=.:.>.< < < < < < < < < < 2 6 7 ",
": 5 , < < < < < < < < < < ,.<.I < w w w w l 1.2.R 3.< < < < < < < < < < < 2 6 7 ",
": 5 , < < < < < < < < < w 4.5.6.7.8.S 9.0.q.w.K e.r.< < < < < < < < < < < 2 6 7 ",
": 5 , < < < < < < < < < w t.y.u.i.p.a.s.d.f.g.h.j.< < < < < < < < < < < < 2 6 9 ",
": 5 , < < < < < < < < < < ! i k.l.z.x.c.v.b.n.m.< < < < < < < < < < < < < 2 6 9 ",
": 5 , < < < < < < < < < < < w w w < M.M.< 0 0 < < < < < < < < < < < < < < 2 6 7 ",
": 5 , < < < < < < < < < < < < < < < < < < < < < < < < < < < < < < < < < < 2 6 7 ",
": 5 , < < < < < < < < < < < < < < < < < < < < < < < < < < < < < < < < < < 2 6 7 ",
": 5 , < < < < < < < < < < < < < < < < < < < < < < < < < < < < < < < < < < 2 6 7 ",
": 5 , < < < < < < < < < < < < < < < < < < < < < < < < < < < < < < < < < < 2 6 7 ",
"8 5 , < < < < < < < < < < < < < < < < < < < < < < < < < < < < < < < < < < 2 6 9 ",
": 5 , < < < < < < < < < < < < < < < < < < < < < < < < < < < < < < < < < < 2 6 9 ",
": 5 , < < < < < < < < < < < < < < < < < < < < < < < < < < < < < < < < < < 2 6 7 ",
": 5 , < < < < < < < < < < < < < < < < < < < < < < < < < < < < < < < < < < 2 6 7 ",
": > , < < < < < < < < < < < < < < < < < < < < < < < < < < < < < < < < < < 2 6 7 ",
"8 N.2 2 2 2 2 2 2 2 2 2 2 2 2 2 2 2 2 2 2 2 2 2 2 2 2 2 2 2 2 2 2 2 2 2 2 B.6 4 ",
"4 V.C.3 3 3 3 3 3 3 3 3 3 3 3 3 3 3 3 3 3 3 3 3 3 3 3 3 3 3 3 3 3 3 3 3 3 3 Z.A.",
"S.D.F.G.4 G.G.G.G.G.G.4 G.G.G.G.G.G.4 G.G.G.G.G.G.4 G.G.G.G.G.4 4 4 G.G.G.F.D.S."
};
