/* XPM */
static char *ae59368d7f8c4a53b5073fa6f842c927MWnnq6Pq4qeHCkJb[] = {
/* columns rows colors chars-per-pixel */
"40 40 147 2 ",
"   c #3E3C3C",
".  c #534D4D",
"X  c #595252",
"o  c #585151",
"O  c #595151",
"+  c #575151",
"@  c #494747",
"#  c #393939",
"$  c #514C4C",
"%  c #7E7070",
"&  c #877878",
"*  c #877777",
"=  c #837676",
"-  c #686666",
";  c gray27",
":  c #534E4E",
">  c #837474",
",  c #8C7C7C",
"<  c #8B7B7B",
"1  c #8C7B7B",
"2  c #877A7A",
"3  c #6C6969",
"4  c gray28",
"5  c #827474",
"6  c #6B6969",
"7  c #464747",
"8  c #524E4E",
"9  c #464646",
"0  c #8C7B7A",
"q  c #8A7B7C",
"w  c #937674",
"e  c #B46257",
"r  c #C0594C",
"t  c #B0625A",
"y  c #8E7978",
"u  c #967571",
"i  c #C65A48",
"p  c #E94329",
"a  c #EE3B23",
"s  c #D04C3D",
"d  c #907876",
"f  c #9A746F",
"g  c #CD5A45",
"h  c #EA472B",
"j  c #EE3C23",
"k  c #D04C3C",
"l  c #9E736C",
"z  c #D25C42",
"x  c #EA4D2E",
"c  c #C55B49",
"v  c #CE513F",
"b  c #A37369",
"n  c #D85E40",
"m  c #E75332",
"M  c #BE6251",
"N  c #C45747",
"B  c #A87367",
"V  c #DD613F",
"C  c #E75936",
"Z  c #B86857",
"A  c #8F7978",
"S  c #8C7A7A",
"D  c #C55647",
"F  c #8D7B7A",
"G  c #AE7464",
"H  c #E16640",
"J  c #E3603B",
"K  c #B26D5D",
"L  c #8E7A79",
"P  c #8A7B7B",
"I  c #8C7A79",
"U  c #8E7B79",
"Y  c #B47661",
"T  c #E56C41",
"R  c #DF6741",
"E  c #AB7264",
"W  c #897C7C",
"Q  c #8A7C7C",
"!  c #C55747",
"~  c #CF4D3D",
"^  c #8E7878",
"/  c #897C7D",
"(  c #9E7A70",
")  c #E27245",
"_  c #EA6B3D",
"`  c #BD6F58",
"'  c #A27469",
"]  c #A27269",
"[  c #A27169",
"{  c #A27068",
"}  c #A36D66",
"|  c #D64736",
" . c #A56761",
".. c #A16965",
"X. c #947371",
"o. c #A27A6E",
"O. c #E67243",
"+. c #EC6B3C",
"@. c #E4663E",
"#. c #E4603B",
"$. c #E35A38",
"%. c #E35535",
"&. c #E35033",
"*. c #E34B31",
"=. c #E8432A",
"-. c #EC3C25",
";. c #E93A25",
":. c #E33C29",
">. c #E13A29",
",. c #AF5D57",
"<. c #957A75",
"1. c #B57761",
"2. c #B9735D",
"3. c #B9705B",
"4. c #B96D5A",
"5. c #B96A58",
"6. c #B96757",
"7. c #B96455",
"8. c #B96254",
"9. c #D74C37",
"0. c #ED3C24",
"q. c #DD4330",
"w. c #BB584E",
"e. c #B85951",
"r. c #9E6C68",
"t. c #CF4C3D",
"y. c #8F7877",
"u. c #EF3B22",
"i. c #C35848",
"p. c #EC3D25",
"a. c #CE4D3E",
"s. c #8B7B7A",
"d. c #9F6E69",
"f. c #AD655D",
"g. c #A36B65",
"h. c #8D7A79",
"j. c #7F7373",
"k. c #847979",
"l. c #666363",
"z. c #6D6A6A",
"x. c #606060",
"c. c #434343",
"v. c gray24",
"b. c #444444",
"n. c #484848",
"m. c #474848",
"M. c white",
/* pixels */
"  . X o o o o o o o o o o o o o o o o o o o o o o o o o o o o o o o o o O + @ # ",
"$ % & * * * * * * * * * * * * * * * * * * * * * * * * * * * * * * * * * * = - ; ",
": > , < < < < < < < < < < < < < < < < < < < < < < < < < < < < < < < < < 1 2 3 4 ",
": 5 , < < < < < < < < < < < < < < < < < < < < < < < < < < < < < < < < < < 2 6 7 ",
": 5 , < < < < < < < < < < < < < < < < < < < < < < < < < < < < < < < < < < 2 6 7 ",
"8 5 , < < < < < < < < < < < < < < < < < < < < < < < < < < < < < < < < < < 2 6 9 ",
": 5 , < < < < < < < < < < < < < < < < < < < < < < < < < < < < < < < < < < 2 6 7 ",
": 5 , < < < < < < < < < < < < < < < < < < < < < < < < < < < < < < < < < < 2 6 7 ",
": 5 , < < < < < < < < < < < < < < < < < < < < < < < < < < < < < < < < < < 2 6 7 ",
": 5 , < < < < < < < < < < < < < < < < < < < < < < < < < < < < < < < < < < 2 6 7 ",
": 5 , < < < < < < < < < < < < < < < < < < < < < < < < < < < < < < < < < < 2 6 7 ",
": 5 , < < < < < < < < < < < < < < < < < < < 0 1 < < < < < < < < < < < < < 2 6 9 ",
"8 5 , < < < < < < < < < < < < < < < < q w e r t y < < < < < < < < < < < < 2 6 9 ",
": 5 , < < < < < < < < < < < < < < < q u i p a s d < < < < < < < < < < < < 2 6 7 ",
": 5 , < < < < < < < < < < < < < < q f g h p j k d < < < < < < < < < < < < 2 6 7 ",
": 5 , < < < < < < < < < < < < < < l z x c v a k d < < < < < < < < < < < < 2 6 7 ",
": 5 , < < < < < < < < < < < < < b n m M w N a k d < < < < < < < < < < < < 2 6 7 ",
": 5 , < < < < < < < < < < < < B V C Z A S D a k d < < < < < < < < < < < < 2 6 7 ",
": 5 , < < < < < < < < < < F G H J K L P I D a k d < < < < < < < < < < < < 2 6 9 ",
": 5 , < < < < < < < < < U Y T R E < W Q < ! a ~ ^ / q < < < < < < < < < < 2 6 9 ",
": 5 , < < < < < < < < q ( ) _ ` ' ] [ { } v a |  ...X.< < < < < < < < < < 2 6 7 ",
": 5 , < < < < < < < < q o.O.+.@.#.$.%.&.*.=.-.;.:.>.,.q < < < < < < < < < 2 6 7 ",
": 5 , < < < < < < < < P <.1.2.3.4.5.6.7.8.9.0.q.w.e.r.< < < < < < < < < < 2 6 7 ",
": 5 , < < < < < < < < < < < < < < < < < S ! a t.y.< < < < < < < < < < < < 2 6 7 ",
": 5 , < < < < < < < < < < < < < < < < < S D u.k d q < < < < < < < < < < < 2 6 7 ",
": 5 , < < < < < < < < < < < < < < < < < S i.p.a.y.< < < < < < < < < < < < 2 6 9 ",
": 5 , < < < < < < < < < < < < < < < < < s.d.f.g.h.< < < < < < < < < < < < 2 6 9 ",
": 5 , < < < < < < < < < < < < < < < < < < q Q Q < < < < < < < < < < < < < 2 6 7 ",
": 5 , < < < < < < < < < < < < < < < < < < < < < < < < < < < < < < < < < < 2 6 7 ",
": 5 , < < < < < < < < < < < < < < < < < < < < < < < < < < < < < < < < < < 2 6 7 ",
": 5 , < < < < < < < < < < < < < < < < < < < < < < < < < < < < < < < < < < 2 6 7 ",
": 5 , < < < < < < < < < < < < < < < < < < < < < < < < < < < < < < < < < < 2 6 7 ",
"8 5 , < < < < < < < < < < < < < < < < < < < < < < < < < < < < < < < < < < 2 6 9 ",
": 5 , < < < < < < < < < < < < < < < < < < < < < < < < < < < < < < < < < < 2 6 9 ",
": 5 , < < < < < < < < < < < < < < < < < < < < < < < < < < < < < < < < < < 2 6 7 ",
": 5 , < < < < < < < < < < < < < < < < < < < < < < < < < < < < < < < < < < 2 6 7 ",
": > , < < < < < < < < < < < < < < < < < < < < < < < < < < < < < < < < < < 2 6 7 ",
"8 j.2 2 2 2 2 2 2 2 2 2 2 2 2 2 2 2 2 2 2 2 2 2 2 2 2 2 2 2 2 2 2 2 2 2 2 k.6 4 ",
"4 l.z.3 3 3 3 3 3 3 3 3 3 3 3 3 3 3 3 3 3 3 3 3 3 3 3 3 3 3 3 3 3 3 3 3 3 3 x.c.",
"v.b.n.m.4 m.m.m.m.m.m.4 m.m.m.m.m.m.4 m.m.m.m.m.m.4 m.m.m.m.m.4 4 4 m.m.m.n.b.v."
};
