/* XPM */
static char *_5383b651ce14624cd11715c6d03a1d2Jzout9yPFcaWT48W[] = {
/* columns rows colors chars-per-pixel */
"40 40 170 2 ",
"   c #3E3C3C",
".  c #534D4D",
"X  c #595252",
"o  c #585151",
"O  c #595151",
"+  c #575151",
"@  c #494747",
"#  c #393939",
"$  c #514C4C",
"%  c #7E7070",
"&  c #877878",
"*  c #877777",
"=  c #837676",
"-  c #686666",
";  c gray27",
":  c #534E4E",
">  c #837474",
",  c #8C7C7C",
"<  c #8B7B7B",
"1  c #8C7B7B",
"2  c #877A7A",
"3  c #6C6969",
"4  c gray28",
"5  c #827474",
"6  c #6B6969",
"7  c #464747",
"8  c #524E4E",
"9  c #464646",
"0  c #8B7A7A",
"q  c #8A7A7A",
"w  c #8B7A7B",
"e  c #8F7271",
"r  c #9E524C",
"t  c #9A4D46",
"y  c #924B46",
"u  c #8A4A45",
"i  c #834844",
"p  c #7B4744",
"a  c #744643",
"s  c #6D4644",
"d  c #664645",
"f  c #5E4544",
"g  c #6A5656",
"h  c #897878",
"j  c #8B7C7C",
"k  c #936B69",
"l  c #AF2F22",
"z  c #A72518",
"x  c #97271D",
"c  c #89271F",
"v  c #7D251D",
"b  c #70221C",
"n  c #63201C",
"m  c #58211E",
"M  c #4C211F",
"N  c #3F1F1D",
"B  c #523C3B",
"V  c #936B68",
"C  c #A7261B",
"Z  c #934C46",
"A  c #8A6563",
"S  c #876462",
"D  c #846361",
"F  c #806361",
"G  c #7D6362",
"H  c #7A6362",
"J  c #766262",
"K  c #7C6A6A",
"L  c #A6271B",
"P  c #925B57",
"I  c #8B7D7D",
"U  c #8B7C7D",
"Y  c #8C7C7D",
"T  c #A7261A",
"R  c #944640",
"E  c #8A5A57",
"W  c #855855",
"Q  c #815A58",
"!  c #80615F",
"~  c #846D6C",
"^  c #AF2E22",
"/  c #A72519",
"(  c #97261D",
")  c #89261E",
"_  c #7C231C",
"`  c #6F1F19",
"'  c #631F1A",
"]  c #5C2926",
"[  c #644240",
"{  c #7C6867",
"}  c #907170",
"|  c #9E514A",
" . c #97534D",
".. c #905753",
"X. c #8A5956",
"o. c #855755",
"O. c #7D4F4C",
"+. c #6E3B37",
"@. c #57221E",
"#. c #461916",
"$. c #4C2D2B",
"%. c #796666",
"&. c #897777",
"*. c #765958",
"=. c #4D2421",
"-. c #391715",
";. c #564040",
":. c #887878",
">. c #887777",
",. c #593836",
"<. c #381614",
"1. c #483131",
"2. c #847373",
"3. c #887776",
"4. c #593634",
"5. c #4B3433",
"6. c #857575",
"7. c #8C7978",
"8. c #946C69",
"9. c #8F7371",
"0. c #775B5A",
"q. c #4C2321",
"w. c #3B1917",
"e. c #604A4A",
"r. c #8F7473",
"t. c #B04137",
"y. c #AC3A2F",
"u. c #994E48",
"i. c #8F5D59",
"p. c #8B6463",
"a. c #876664",
"s. c #825F5D",
"d. c #744744",
"f. c #592522",
"g. c #461917",
"h. c #513332",
"j. c #7F6D6D",
"k. c #8E7675",
"l. c #AC473E",
"z. c #B22A1D",
"x. c #A6261B",
"c. c #97261C",
"v. c #7C251E",
"b. c #6F2019",
"n. c #611B16",
"m. c #592420",
"M. c #63413F",
"N. c #7E6B6B",
"B. c #907371",
"V. c #956562",
"C. c #955955",
"Z. c #914E4A",
"A. c #8A4843",
"S. c #824642",
"D. c #7C4946",
"F. c #7A5452",
"G. c #806665",
"H. c #8A7C7C",
"J. c #8B7B7A",
"K. c #7F7373",
"L. c #847979",
"P. c #666363",
"I. c #6D6A6A",
"U. c #606060",
"Y. c #434343",
"T. c gray24",
"R. c #444444",
"E. c #484848",
"W. c #474848",
"Q. c white",
/* pixels */
"  . X o o o o o o o o o o o o o o o o o o o o o o o o o o o o o o o o o O + @ # ",
"$ % & * * * * * * * * * * * * * * * * * * * * * * * * * * * * * * * * * * = - ; ",
": > , < < < < < < < < < < < < < < < < < < < < < < < < < < < < < < < < < 1 2 3 4 ",
": 5 , < < < < < < < < < < < < < < < < < < < < < < < < < < < < < < < < < < 2 6 7 ",
": 5 , < < < < < < < < < < < < < < < < < < < < < < < < < < < < < < < < < < 2 6 7 ",
"8 5 , < < < < < < < < < < < < < < < < < < < < < < < < < < < < < < < < < < 2 6 9 ",
": 5 , < < < < < < < < < < < < < < < < < < < < < < < < < < < < < < < < < < 2 6 7 ",
": 5 , < < < < < < < < < < < < < < < < < < < < < < < < < < < < < < < < < < 2 6 7 ",
": 5 , < < < < < < < < < < < < < < < < < < < < < < < < < < < < < < < < < < 2 6 7 ",
": 5 , < < < < < < < < < < < < < < < < < < < < < < < < < < < < < < < < < < 2 6 7 ",
": 5 , < < < < < < < < < < < < < < < < < < < < < < < < < < < < < < < < < < 2 6 7 ",
": 5 , < < < < < < < < < < < < 0 0 0 0 0 0 0 0 0 q w < < < < < < < < < < < 2 6 9 ",
"8 5 , < < < < < < < < < < < e r t y u i p a s d f g h < < < < < < < < < < 2 6 9 ",
": 5 , < < < < < < < < < < j k l z x c v b n m M N B * < < < < < < < < < < 2 6 7 ",
": 5 , < < < < < < < < < < j V l C Z A S D F G H J K q < < < < < < < < < < 2 6 7 ",
": 5 , < < < < < < < < < < j V l L P I U U Y , , , , < < < < < < < < < < < 2 6 7 ",
": 5 , < < < < < < < < < < j V l L P I j j , j < < < < < < < < < < < < < < 2 6 7 ",
": 5 , < < < < < < < < < < j V l T R E W Q ! ~ h , < < < < < < < < < < < < 2 6 7 ",
": 5 , < < < < < < < < < < j V ^ / ( ) _ ` ' ] [ { < < < < < < < < < < < < 2 6 9 ",
": 5 , < < < < < < < < < < < } |  ...X.o.O.+.@.#.$.%., < < < < < < < < < < 2 6 9 ",
": 5 , < < < < < < < < < < < < 0 < j j j j &.*.=.-.;.:.< < < < < < < < < < 2 6 7 ",
": 5 , < < < < < < < < < < < < < < < < < < j >.,.<.1.2., < < < < < < < < < 2 6 7 ",
": 5 , < < < < < < < < < < < j j < < < < < j 3.4.<.5.6., < < < < < < < < < 2 6 7 ",
": 5 , < < < < < < < < < < 7.8.9.0 j j j j q 0.q.w.e.q < < < < < < < < < < 2 6 7 ",
": 5 , < < < < < < < < < j r.t.y.u.i.p.a.s.d.f.g.h.j., < < < < < < < < < < 2 6 7 ",
": 5 , < < < < < < < < < j k.l.z.x.c.) v.b.n.m.M.N.< < < < < < < < < < < < 2 6 9 ",
": 5 , < < < < < < < < < < < B.V.C.Z.A.S.D.F.G.>.j < < < < < < < < < < < < 2 6 9 ",
": 5 , < < < < < < < < < < < j H.j < J.0 < , , < < < < < < < < < < < < < < 2 6 7 ",
": 5 , < < < < < < < < < < < < < < < < < < < < < < < < < < < < < < < < < < 2 6 7 ",
": 5 , < < < < < < < < < < < < < < < < < < < < < < < < < < < < < < < < < < 2 6 7 ",
": 5 , < < < < < < < < < < < < < < < < < < < < < < < < < < < < < < < < < < 2 6 7 ",
": 5 , < < < < < < < < < < < < < < < < < < < < < < < < < < < < < < < < < < 2 6 7 ",
"8 5 , < < < < < < < < < < < < < < < < < < < < < < < < < < < < < < < < < < 2 6 9 ",
": 5 , < < < < < < < < < < < < < < < < < < < < < < < < < < < < < < < < < < 2 6 9 ",
": 5 , < < < < < < < < < < < < < < < < < < < < < < < < < < < < < < < < < < 2 6 7 ",
": 5 , < < < < < < < < < < < < < < < < < < < < < < < < < < < < < < < < < < 2 6 7 ",
": > , < < < < < < < < < < < < < < < < < < < < < < < < < < < < < < < < < < 2 6 7 ",
"8 K.2 2 2 2 2 2 2 2 2 2 2 2 2 2 2 2 2 2 2 2 2 2 2 2 2 2 2 2 2 2 2 2 2 2 2 L.6 4 ",
"4 P.I.3 3 3 3 3 3 3 3 3 3 3 3 3 3 3 3 3 3 3 3 3 3 3 3 3 3 3 3 3 3 3 3 3 3 3 U.Y.",
"T.R.E.W.4 W.W.W.W.W.W.4 W.W.W.W.W.W.4 W.W.W.W.W.W.4 W.W.W.W.W.4 4 4 W.W.W.E.R.T."
};
