/* XPM */
static char *result[] = {
/* columns rows colors chars-per-pixel */
"40 40 190 2 ",
"   c #3E3C3C",
".  c #534D4D",
"X  c #595252",
"o  c #585151",
"O  c #595151",
"+  c #575151",
"@  c #494747",
"#  c #393939",
"$  c #514C4C",
"%  c #7E7070",
"&  c #877878",
"*  c #877777",
"=  c #837676",
"-  c #686666",
";  c gray27",
":  c #534E4E",
">  c #837474",
",  c #8C7C7C",
"<  c #8B7B7B",
"1  c #8C7B7B",
"2  c #877A7A",
"3  c #6C6969",
"4  c gray28",
"5  c #827474",
"6  c #6B6969",
"7  c #464747",
"8  c #524E4E",
"9  c #464646",
"0  c #8B7C7C",
"q  c #8B7A7A",
"w  c #8A7877",
"e  c #897575",
"r  c #877474",
"t  c #877676",
"y  c #8A7979",
"u  c #8B7B7C",
"i  c #8B7373",
"p  c #8A5F5D",
"a  c #824B47",
"s  c #783C38",
"d  c #6C3531",
"f  c #623330",
"g  c #5B3735",
"h  c #725B5A",
"j  c #8C7979",
"k  c #925F5C",
"l  c #933A33",
"z  c #89251D",
"x  c #7C221B",
"c  c #722722",
"v  c #682B27",
"b  c #5E2C28",
"n  c #4E2522",
"m  c #654B4A",
"M  c #8A7B7B",
"N  c #9A5852",
"B  c #A32C22",
"V  c #98241A",
"C  c #8B3C35",
"Z  c #865A58",
"A  c #866B6A",
"S  c #877070",
"D  c #857070",
"F  c #7E6868",
"G  c #806D6C",
"H  c #98635F",
"J  c #AF2E22",
"K  c #A6271B",
"L  c #934A45",
"P  c #8B7372",
"I  c #8E7675",
"U  c #AE4339",
"Y  c #B62416",
"T  c #A03D35",
"R  c #8D7473",
"E  c #8A7A7A",
"W  c #8B7B7A",
"Q  c #8A7C7C",
"!  c #976A67",
"~  c #BC3123",
"^  c #B52618",
"/  c #9A514B",
"(  c #8D6563",
")  c #8A534F",
"_  c #834945",
"`  c #7B4542",
"'  c #754946",
"]  c #755553",
"[  c #7F6969",
"{  c #A05F5A",
"}  c #C22B1B",
"|  c #B52719",
" . c #A23127",
".. c #962D24",
"X. c #892A22",
"o. c #7D2922",
"O. c #712520",
"+. c #631F1A",
"@. c #551C19",
"#. c #502825",
"$. c #634948",
"%. c #837272",
"&. c #A65953",
"*. c #C42919",
"=. c #B4281A",
"-. c #9E4038",
";. c #905955",
":. c #8B6563",
">. c #886968",
",. c #856766",
"<. c #7D5D5B",
"1. c #673F3D",
"2. c #481D1B",
"3. c #3B1A18",
"4. c #5A4444",
"5. c #A75851",
"6. c #C52818",
"7. c #B22E20",
"8. c #936865",
"9. c #8A7D7D",
"0. c #877575",
"q. c #5F3F3D",
"w. c #391716",
"e. c #3B2323",
"r. c #786767",
"t. c #A25D57",
"y. c #C3291A",
"u. c #B32C1F",
"i. c #936663",
"p. c #8C7D7D",
"a. c #715857",
"s. c #3C1B19",
"d. c #331C1B",
"f. c #6E5E5E",
"g. c #996864",
"h. c #BE2F21",
"j. c #985853",
"k. c #6F5656",
"l. c #351E1D",
"z. c #726161",
"x. c #8F7574",
"c. c #B04237",
"v. c #A13930",
"b. c #8E6D6B",
"n. c #867473",
"m. c #5C3A39",
"M. c #391615",
"N. c #452E2D",
"B. c #806F6F",
"V. c #986561",
"C. c #AE3226",
"Z. c #A72519",
"A. c #953831",
"S. c #8B5A57",
"D. c #886A68",
"F. c #7E5E5D",
"G. c #663D3A",
"H. c #481C1A",
"J. c #432321",
"K. c #6D5958",
"L. c #8C7A7A",
"P. c #956460",
"I. c #9D3D35",
"U. c #97271E",
"Y. c #8A241B",
"T. c #7D2720",
"R. c #712620",
"E. c #561F1C",
"W. c #593432",
"Q. c #735D5C",
"!. c #897979",
"~. c #8D7372",
"^. c #8E615E",
"/. c #8A504C",
"(. c #824743",
"). c #7A4542",
"_. c #774D4A",
"`. c #7B5E5C",
"'. c #857271",
"]. c #7F7373",
"[. c #847979",
"{. c #666363",
"}. c #6D6A6A",
"|. c #606060",
" X c #434343",
".X c gray24",
"XX c #444444",
"oX c #484848",
"OX c #474848",
"+X c white",
/* pixels */
"  . X o o o o o o o o o o o o o o o o o o o o o o o o o o o o o o o o o O + @ # ",
"$ % & * * * * * * * * * * * * * * * * * * * * * * * * * * * * * * * * * * = - ; ",
": > , < < < < < < < < < < < < < < < < < < < < < < < < < < < < < < < < < 1 2 3 4 ",
": 5 , < < < < < < < < < < < < < < < < < < < < < < < < < < < < < < < < < < 2 6 7 ",
": 5 , < < < < < < < < < < < < < < < < < < < < < < < < < < < < < < < < < < 2 6 7 ",
"8 5 , < < < < < < < < < < < < < < < < < < < < < < < < < < < < < < < < < < 2 6 9 ",
": 5 , < < < < < < < < < < < < < < < < < < < < < < < < < < < < < < < < < < 2 6 7 ",
": 5 , < < < < < < < < < < < < < < < < < < < < < < < < < < < < < < < < < < 2 6 7 ",
": 5 , < < < < < < < < < < < < < < < < < < < < < < < < < < < < < < < < < < 2 6 7 ",
": 5 , < < < < < < < < < < < < < < < < < < < < < < < < < < < < < < < < < < 2 6 7 ",
": 5 , < < < < < < < < < < < < < < < < < < 0 0 0 < < < < < < < < < < < < < 2 6 7 ",
": 5 , < < < < < < < < < < < < < < < 0 q w e r t y < < < < < < < < < < < < 2 6 9 ",
"8 5 , < < < < < < < < < < < < < u i p a s d f g h < < < < < < < < < < < < 2 6 9 ",
": 5 , < < < < < < < < < < < < j k l z x c v b n m M < < < < < < < < < < < 2 6 7 ",
": 5 , < < < < < < < < < < < j N B V C Z A S D F G < < < < < < < < < < < < 2 6 7 ",
": 5 , < < < < < < < < < < 0 H J K L P 0 0 0 , , , < < < < < < < < < < < < 2 6 7 ",
": 5 , < < < < < < < < < u I U Y T R 0 q E W 0 , < < < < < < < < < < < < < 2 6 7 ",
": 5 , < < < < < < < < < Q ! ~ ^ / ( ) _ ` ' ] [ y , < < < < < < < < < < < 2 6 7 ",
": 5 , < < < < < < < < < Q { } |  ...X.o.O.+.@.#.$.%.< < < < < < < < < < < 2 6 9 ",
": 5 , < < < < < < < < < Q &.*.=.-.;.:.>.,.<.1.2.3.4.* < < < < < < < < < < 2 6 9 ",
": 5 , < < < < < < < < < Q 5.6.7.8.9.0 0 0 , 0.q.w.e.r., < < < < < < < < < 2 6 7 ",
": 5 , < < < < < < < < < Q t.y.u.i.0 < < < < p.a.s.d.f., < < < < < < < < < 2 6 7 ",
": 5 , < < < < < < < < < Q g.h.| j.0 < < < < p.k.3.l.z., < < < < < < < < < 2 6 7 ",
": 5 , < < < < < < < < < 0 x.c.Y v.b.0 0 0 , n.m.M.N.B., < < < < < < < < < 2 6 7 ",
": 5 , < < < < < < < < < < < V.C.Z.A.S.D.A F.G.H.J.K.< < < < < < < < < < < 2 6 7 ",
": 5 , < < < < < < < < < < < L.P.I.U.Y.T.R.+.E.W.Q.!.< < < < < < < < < < < 2 6 9 ",
": 5 , < < < < < < < < < < < < < ~.^./.(.)._.`.'.< < < < < < < < < < < < < 2 6 9 ",
": 5 , < < < < < < < < < < < < < 0 0 u < < 0 , 0 < < < < < < < < < < < < < 2 6 7 ",
": 5 , < < < < < < < < < < < < < < < < < < < < < < < < < < < < < < < < < < 2 6 7 ",
": 5 , < < < < < < < < < < < < < < < < < < < < < < < < < < < < < < < < < < 2 6 7 ",
": 5 , < < < < < < < < < < < < < < < < < < < < < < < < < < < < < < < < < < 2 6 7 ",
": 5 , < < < < < < < < < < < < < < < < < < < < < < < < < < < < < < < < < < 2 6 7 ",
"8 5 , < < < < < < < < < < < < < < < < < < < < < < < < < < < < < < < < < < 2 6 9 ",
": 5 , < < < < < < < < < < < < < < < < < < < < < < < < < < < < < < < < < < 2 6 9 ",
": 5 , < < < < < < < < < < < < < < < < < < < < < < < < < < < < < < < < < < 2 6 7 ",
": 5 , < < < < < < < < < < < < < < < < < < < < < < < < < < < < < < < < < < 2 6 7 ",
": > , < < < < < < < < < < < < < < < < < < < < < < < < < < < < < < < < < < 2 6 7 ",
"8 ].2 2 2 2 2 2 2 2 2 2 2 2 2 2 2 2 2 2 2 2 2 2 2 2 2 2 2 2 2 2 2 2 2 2 2 [.6 4 ",
"4 {.}.3 3 3 3 3 3 3 3 3 3 3 3 3 3 3 3 3 3 3 3 3 3 3 3 3 3 3 3 3 3 3 3 3 3 3 |. X",
".XXXoXOX4 OXOXOXOXOXOX4 OXOXOXOXOXOX4 OXOXOXOXOXOX4 OXOXOXOXOX4 4 4 OXOXOXoXXX.X"
};
