/* XPM */
static char *result[] = {
/* columns rows colors chars-per-pixel */
"40 40 146 2 ",
"   c #3E3C3C",
".  c #534D4D",
"X  c #595252",
"o  c #585151",
"O  c #595151",
"+  c #575151",
"@  c #494747",
"#  c #393939",
"$  c #514C4C",
"%  c #7E7070",
"&  c #877878",
"*  c #877777",
"=  c #837676",
"-  c #686666",
";  c gray27",
":  c #534E4E",
">  c #837474",
",  c #8C7C7C",
"<  c #8B7B7B",
"1  c #8C7B7B",
"2  c #877A7A",
"3  c #6C6969",
"4  c gray28",
"5  c #827474",
"6  c #6B6969",
"7  c #464747",
"8  c #524E4E",
"9  c #464646",
"0  c #8B7B7A",
"q  c #8C7A7A",
"w  c #8B7A7A",
"e  c #8A7A7A",
"r  c #8B7C7C",
"t  c #956F6C",
"y  c #A85148",
"u  c #A24D45",
"i  c #9A4C46",
"p  c #924B45",
"a  c #8A4A45",
"s  c #834844",
"d  c #7B4744",
"f  c #744643",
"g  c #6D4644",
"h  c #664645",
"j  c #5F4645",
"k  c #604D4C",
"l  c #827272",
"z  c #8A7C7C",
"x  c #9C6662",
"c  c #BD3325",
"v  c #B22C1F",
"b  c #A42C21",
"n  c #972920",
"m  c #89271F",
"M  c #7D251D",
"N  c #70221C",
"B  c #63201C",
"V  c #58211E",
"C  c #4A1F1D",
"Z  c #391816",
"A  c #3A2322",
"S  c #796968",
"D  c #8F7574",
"F  c #986764",
"G  c #966662",
"H  c #926662",
"J  c #8E6562",
"K  c #8A6462",
"L  c #876362",
"P  c #846361",
"I  c #806361",
"U  c #7D6261",
"Y  c #5E3D3B",
"T  c #402928",
"R  c #7D6D6C",
"E  c #8B7C7D",
"W  c #8C7D7D",
"Q  c #7D6665",
"!  c #502826",
"~  c #3D1B1A",
"^  c #634E4D",
"/  c #897979",
"(  c #867170",
")  c #623734",
"_  c #461917",
"`  c #573A38",
"'  c #847373",
"]  c #8A7979",
"[  c #744947",
"{  c #531A17",
"}  c #522927",
"|  c #7B6665",
" . c #805D5B",
".. c #64221D",
"X. c #561D19",
"o. c #715352",
"O. c #876D6C",
"+. c #73312C",
"@. c #601813",
"#. c #6A3D3B",
"$. c #877575",
"%. c #8A7776",
"&. c #804440",
"*. c #6D1B14",
"=. c #692B27",
"-. c #826968",
";. c #885754",
":. c #7C221B",
">. c #70211B",
",. c #7D5755",
"<. c #8C6967",
"1. c #882F28",
"2. c #7C1D15",
"3. c #7C433F",
"4. c #897676",
"5. c #8C7473",
"6. c #914039",
"7. c #892016",
"8. c #80322C",
"9. c #886C6B",
"0. c #8C7979",
"q. c #95524D",
"w. c #97241A",
"e. c #8A281F",
"r. c #885C5A",
"t. c #946562",
"y. c #A13127",
"u. c #98251B",
"i. c #8C4A45",
"p. c #8B7878",
"a. c #916C6A",
"s. c #955D59",
"d. c #8F5E5B",
"f. c #8B7271",
"g. c #8B7B7C",
"h. c #7F7373",
"j. c #847979",
"k. c #666363",
"l. c #6D6A6A",
"z. c #606060",
"x. c #434343",
"c. c gray24",
"v. c #444444",
"b. c #484848",
"n. c #474848",
"m. c white",
/* pixels */
"  . X o o o o o o o o o o o o o o o o o o o o o o o o o o o o o o o o o O + @ # ",
"$ % & * * * * * * * * * * * * * * * * * * * * * * * * * * * * * * * * * * = - ; ",
": > , < < < < < < < < < < < < < < < < < < < < < < < < < < < < < < < < < 1 2 3 4 ",
": 5 , < < < < < < < < < < < < < < < < < < < < < < < < < < < < < < < < < < 2 6 7 ",
": 5 , < < < < < < < < < < < < < < < < < < < < < < < < < < < < < < < < < < 2 6 7 ",
"8 5 , < < < < < < < < < < < < < < < < < < < < < < < < < < < < < < < < < < 2 6 9 ",
": 5 , < < < < < < < < < < < < < < < < < < < < < < < < < < < < < < < < < < 2 6 7 ",
": 5 , < < < < < < < < < < < < < < < < < < < < < < < < < < < < < < < < < < 2 6 7 ",
": 5 , < < < < < < < < < < < < < < < < < < < < < < < < < < < < < < < < < < 2 6 7 ",
": 5 , < < < < < < < < < < < < < < < < < < < < < < < < < < < < < < < < < < 2 6 7 ",
": 5 , < < < < < < < < < < < < < < < < < < < < < < < < < < < < < < < < < < 2 6 7 ",
": 5 , < < < < < < < < < < < 0 q w w w w w w w w e e < < < < < < < < < < < 2 6 9 ",
"8 5 , < < < < < < < < < r t y u i p a s d f g h j k l , < < < < < < < < < 2 6 9 ",
": 5 , < < < < < < < < < z x c v b n m M N B V C Z A S , < < < < < < < < < 2 6 7 ",
": 5 , < < < < < < < < < < D F G H J K L P I U Y Z T R , < < < < < < < < < 2 6 7 ",
": 5 , < < < < < < < < < < < z z r r r r E W Q ! ~ ^ / < < < < < < < < < < 2 6 7 ",
": 5 , < < < < < < < < < < < < < < < < < r ( ) _ ` ' r < < < < < < < < < < 2 6 7 ",
": 5 , < < < < < < < < < < < < < < < < < ] [ { } | , < < < < < < < < < < < 2 6 7 ",
": 5 , < < < < < < < < < < < < < < < < <  ...X.o.e < < < < < < < < < < < < 2 6 9 ",
": 5 , < < < < < < < < < < < < < < < r O.+.@.#.$.r < < < < < < < < < < < < 2 6 9 ",
": 5 , < < < < < < < < < < < < < < r %.&.*.=.-.r < < < < < < < < < < < < < 2 6 7 ",
": 5 , < < < < < < < < < < < < < < < ;.:.>.,.< < < < < < < < < < < < < < < 2 6 7 ",
": 5 , < < < < < < < < < < < < < r <.1.2.3.4.r < < < < < < < < < < < < < < 2 6 7 ",
": 5 , < < < < < < < < < < < < r 5.6.7.8.9.r < < < < < < < < < < < < < < < 2 6 7 ",
": 5 , < < < < < < < < < < < < 0.q.w.e.r.< < < < < < < < < < < < < < < < < 2 6 7 ",
": 5 , < < < < < < < < < < < r t.y.u.i.p.< < < < < < < < < < < < < < < < < 2 6 9 ",
": 5 , < < < < < < < < < < < < a.s.d.f.g.< < < < < < < < < < < < < < < < < 2 6 9 ",
": 5 , < < < < < < < < < < < < < r r g.< < < < < < < < < < < < < < < < < < 2 6 7 ",
": 5 , < < < < < < < < < < < < < < < < < < < < < < < < < < < < < < < < < < 2 6 7 ",
": 5 , < < < < < < < < < < < < < < < < < < < < < < < < < < < < < < < < < < 2 6 7 ",
": 5 , < < < < < < < < < < < < < < < < < < < < < < < < < < < < < < < < < < 2 6 7 ",
": 5 , < < < < < < < < < < < < < < < < < < < < < < < < < < < < < < < < < < 2 6 7 ",
"8 5 , < < < < < < < < < < < < < < < < < < < < < < < < < < < < < < < < < < 2 6 9 ",
": 5 , < < < < < < < < < < < < < < < < < < < < < < < < < < < < < < < < < < 2 6 9 ",
": 5 , < < < < < < < < < < < < < < < < < < < < < < < < < < < < < < < < < < 2 6 7 ",
": 5 , < < < < < < < < < < < < < < < < < < < < < < < < < < < < < < < < < < 2 6 7 ",
": > , < < < < < < < < < < < < < < < < < < < < < < < < < < < < < < < < < < 2 6 7 ",
"8 h.2 2 2 2 2 2 2 2 2 2 2 2 2 2 2 2 2 2 2 2 2 2 2 2 2 2 2 2 2 2 2 2 2 2 2 j.6 4 ",
"4 k.l.3 3 3 3 3 3 3 3 3 3 3 3 3 3 3 3 3 3 3 3 3 3 3 3 3 3 3 3 3 3 3 3 3 3 3 z.x.",
"c.v.b.n.4 n.n.n.n.n.n.4 n.n.n.n.n.n.4 n.n.n.n.n.n.4 n.n.n.n.n.4 4 4 n.n.n.b.v.c."
};
