/* XPM */
static char *result[] = {
/* columns rows colors chars-per-pixel */
"40 40 205 2 ",
"   c #3E3C3C",
".  c #534D4D",
"X  c #595252",
"o  c #585151",
"O  c #595151",
"+  c #575151",
"@  c #494747",
"#  c #393939",
"$  c #514C4C",
"%  c #7E7070",
"&  c #877878",
"*  c #877777",
"=  c #837676",
"-  c #686666",
";  c gray27",
":  c #534E4E",
">  c #837474",
",  c #8C7C7C",
"<  c #8B7B7B",
"1  c #8C7B7B",
"2  c #877A7A",
"3  c #6C6969",
"4  c gray28",
"5  c #827474",
"6  c #6B6969",
"7  c #464747",
"8  c #524E4E",
"9  c #464646",
"0  c #8B7C7C",
"q  c #8B7979",
"w  c #8B7575",
"e  c #8A7372",
"r  c #897373",
"t  c #897676",
"y  c #8B7A7A",
"u  c #8E7473",
"i  c #935D59",
"p  c #924641",
"a  c #8A3933",
"s  c #7F332D",
"d  c #75322D",
"f  c #6E3834",
"g  c #6F4947",
"h  c #7B6362",
"j  c #897878",
"k  c #946B68",
"l  c #A74037",
"z  c #A52A1F",
"x  c #972D24",
"c  c #8A3B35",
"v  c #82413D",
"b  c #783D39",
"n  c #692E29",
"m  c #561E1A",
"M  c #4E2422",
"N  c #634948",
"B  c #867575",
"V  c #8F7574",
"C  c #AF4238",
"Z  c #B62516",
"A  c #A1392F",
"S  c #8F6663",
"D  c #8B7776",
"F  c #8B7A79",
"G  c #8A7979",
"H  c #867170",
"J  c #704D4B",
"K  c #491F1C",
"L  c #3E1D1B",
"P  c #6A5555",
"I  c #8A7C7C",
"U  c #976B68",
"Y  c #BD3123",
"T  c #B62517",
"R  c #9A524D",
"E  c #8A7D7D",
"W  c #857372",
"Q  c #542F2C",
"!  c #381615",
"~  c #564040",
"^  c #956E6B",
"/  c #BA3427",
"(  c #B62416",
")  c #9F4037",
"_  c #8D706F",
"`  c #826D6D",
"'  c #512A28",
"]  c #3A1817",
"[  c #604B4A",
"{  c #8D7878",
"}  c #A4524B",
"|  c #B22A1D",
" . c #A6261B",
".. c #953931",
"X. c #8B5552",
"o. c #896A69",
"O. c #8A7776",
"+. c #877272",
"@. c #6A4543",
"#. c #481C1A",
"$. c #503130",
"%. c #7E6C6B",
"&. c #8D7777",
"*. c #9A5954",
"=. c #A23026",
"-. c #982117",
";. c #8A221A",
":. c #7E2923",
">. c #773833",
",. c #6B332E",
"<. c #57201D",
"1. c #603D3B",
"2. c #7F6B6A",
"3. c #926F6E",
"4. c #A14B44",
"5. c #A32E24",
"6. c #953932",
"7. c #8A4A45",
"8. c #803A34",
"9. c #712621",
"0. c #611A15",
"q. c #541B18",
"w. c #5C3735",
"e. c #745E5D",
"r. c #93716F",
"t. c #B14035",
"y. c #B52619",
"u. c #9E433B",
"i. c #8A7676",
"p. c #866A69",
"a. c #795250",
"s. c #60312F",
"d. c #471B18",
"f. c #422120",
"g. c #665251",
"h. c #897979",
"j. c #A75851",
"k. c #C42919",
"l. c #B22F22",
"z. c #926865",
"x. c #8B7C7D",
"c. c #836E6D",
"v. c #583533",
"b. c #412A29",
"n. c #7D6D6D",
"m. c #B04E45",
"M. c #C62616",
"N. c #AF3428",
"B. c #906F6E",
"V. c #684C4B",
"C. c #391716",
"Z. c #382120",
"A. c #776666",
"S. c #B32A1D",
"D. c #975B56",
"F. c #887676",
"G. c #5E3D3B",
"H. c #432C2B",
"J. c #7F6E6E",
"K. c #93706E",
"L. c #B33D32",
"P. c #A43026",
"I. c #915450",
"U. c #8B6C6A",
"Y. c #897372",
"T. c #887171",
"R. c #816665",
"E. c #6B4442",
"W. c #491E1C",
"Q. c #40201E",
"!. c #675353",
"~. c #8A7A7A",
"^. c #946C69",
"/. c #A4463D",
"(. c #A32D22",
"). c #97261C",
"_. c #8A2C24",
"`. c #7F312B",
"'. c #732D28",
"]. c #64231E",
"[. c #571F1C",
"{. c #57312F",
"}. c #6F5857",
"|. c #887878",
" X c #8D7776",
".X c #906764",
"XX c #905551",
"oX c #8A4944",
"OX c #82433F",
"+X c #7A4440",
"@X c #774C49",
"#X c #7A5D5C",
"$X c #847170",
"%X c #8B7B7C",
"&X c #7F7373",
"*X c #847979",
"=X c #666363",
"-X c #6D6A6A",
";X c #606060",
":X c #434343",
">X c gray24",
",X c #444444",
"<X c #484848",
"1X c #474848",
"2X c white",
/* pixels */
"  . X o o o o o o o o o o o o o o o o o o o o o o o o o o o o o o o o o O + @ # ",
"$ % & * * * * * * * * * * * * * * * * * * * * * * * * * * * * * * * * * * = - ; ",
": > , < < < < < < < < < < < < < < < < < < < < < < < < < < < < < < < < < 1 2 3 4 ",
": 5 , < < < < < < < < < < < < < < < < < < < < < < < < < < < < < < < < < < 2 6 7 ",
": 5 , < < < < < < < < < < < < < < < < < < < < < < < < < < < < < < < < < < 2 6 7 ",
"8 5 , < < < < < < < < < < < < < < < < < < < < < < < < < < < < < < < < < < 2 6 9 ",
": 5 , < < < < < < < < < < < < < < < < < < < < < < < < < < < < < < < < < < 2 6 7 ",
": 5 , < < < < < < < < < < < < < < < < < < < < < < < < < < < < < < < < < < 2 6 7 ",
": 5 , < < < < < < < < < < < < < < < < < < < < < < < < < < < < < < < < < < 2 6 7 ",
": 5 , < < < < < < < < < < < < < < < < < < < < < < < < < < < < < < < < < < 2 6 7 ",
": 5 , < < < < < < < < < < < < < < < 0 0 0 0 < < < < < < < < < < < < < < < 2 6 7 ",
": 5 , < < < < < < < < < < < < < 0 q w e r t y , < < < < < < < < < < < < < 2 6 9 ",
"8 5 , < < < < < < < < < < < 0 u i p a s d f g h j < < < < < < < < < < < < 2 6 9 ",
": 5 , < < < < < < < < < < < k l z x c v b n m M N B < < < < < < < < < < < 2 6 7 ",
": 5 , < < < < < < < < < 0 V C Z A S D F G H J K L P < < < < < < < < < < < 2 6 7 ",
": 5 , < < < < < < < < < I U Y T R E 0 < < , W Q ! ~ G < < < < < < < < < < 2 6 7 ",
": 5 , < < < < < < < < < I ^ / ( ) _ < 0 < , ` ' ] [ < < < < < < < < < < < 2 6 7 ",
": 5 , < < < < < < < < < < { } |  ...X.o.O.+.@.#.$.%., < < < < < < < < < < 2 6 7 ",
": 5 , < < < < < < < < < < < &.*.=.-.;.:.>.,.<.1.2.< < < < < < < < < < < < 2 6 9 ",
": 5 , < < < < < < < < < < < 3.4.5.6.7.8.9.0.q.w.e.j < < < < < < < < < < < 2 6 9 ",
": 5 , < < < < < < < < < 0 r.t.y.u._ y i.p.a.s.d.f.g.h.< < < < < < < < < < 2 6 7 ",
": 5 , < < < < < < < < < < j.k.l.z.x.< < 0 < c.v.! b.n., < < < < < < < < < 2 6 7 ",
": 5 , < < < < < < < < < < m.M.N.B.0 < < < < , V.C.Z.A., < < < < < < < < < 2 6 7 ",
": 5 , < < < < < < < < < 0 j.k.S.D.< 0 < 0 , F.G.! H.J., < < < < < < < < < 2 6 7 ",
": 5 , < < < < < < < < < 0 K.L.T P.I.U.Y.T.R.E.W.Q.!.~.< < < < < < < < < < 2 6 7 ",
": 5 , < < < < < < < < < < < ^./.(.)._.`.'.].[.{.}.|.< < < < < < < < < < < 2 6 9 ",
": 5 , < < < < < < < < < < < 0  X.XXXoXOX+X@X#X$X< < < < < < < < < < < < < 2 6 9 ",
": 5 , < < < < < < < < < < < < %X0 0 < y y < , , < < < < < < < < < < < < < 2 6 7 ",
": 5 , < < < < < < < < < < < < < < < < < < < < < < < < < < < < < < < < < < 2 6 7 ",
": 5 , < < < < < < < < < < < < < < < < < < < < < < < < < < < < < < < < < < 2 6 7 ",
": 5 , < < < < < < < < < < < < < < < < < < < < < < < < < < < < < < < < < < 2 6 7 ",
": 5 , < < < < < < < < < < < < < < < < < < < < < < < < < < < < < < < < < < 2 6 7 ",
"8 5 , < < < < < < < < < < < < < < < < < < < < < < < < < < < < < < < < < < 2 6 9 ",
": 5 , < < < < < < < < < < < < < < < < < < < < < < < < < < < < < < < < < < 2 6 9 ",
": 5 , < < < < < < < < < < < < < < < < < < < < < < < < < < < < < < < < < < 2 6 7 ",
": 5 , < < < < < < < < < < < < < < < < < < < < < < < < < < < < < < < < < < 2 6 7 ",
": > , < < < < < < < < < < < < < < < < < < < < < < < < < < < < < < < < < < 2 6 7 ",
"8 &X2 2 2 2 2 2 2 2 2 2 2 2 2 2 2 2 2 2 2 2 2 2 2 2 2 2 2 2 2 2 2 2 2 2 2 *X6 4 ",
"4 =X-X3 3 3 3 3 3 3 3 3 3 3 3 3 3 3 3 3 3 3 3 3 3 3 3 3 3 3 3 3 3 3 3 3 3 3 ;X:X",
">X,X<X1X4 1X1X1X1X1X1X4 1X1X1X1X1X1X4 1X1X1X1X1X1X4 1X1X1X1X1X4 4 4 1X1X1X<X,X>X"
};
