/* XPM */
static char *result[] = {
/* columns rows colors chars-per-pixel */
"40 40 16 1 ",
"  c #1E1E1E",
". c #282828",
"X c #353535",
"o c #3C3C3C",
"O c gray24",
"+ c #3E3E3E",
"@ c #505050",
"# c #515151",
"$ c gray32",
"% c #797979",
"& c gray48",
"* c #7B7B7B",
"= c #7C7C7C",
"- c gray49",
"; c #7E7E7E",
": c None",
/* pixels */
"::::::::::::::::::::::::::::::::::::::::",
"::::::::::::::::::::::::::::::::::::::::",
"::X$################################@.::",
"::#;===============================-*+::",
"::@=********************************&O::",
"::@=********************************&O::",
"::@=********************************&O::",
"::@=********************************&O::",
"::@=********************************&O::",
"::@=********************************&O::",
"::@=********************************&O::",
"::@=********************************&O::",
"::@=********************************&O::",
"::@=********************************&O::",
"::@=********************************&O::",
"::@=********************************&O::",
"::@=********************************&O::",
"::@=********************************&O::",
"::@=********************************&O::",
"::@=********************************&O::",
"::@=********************************&O::",
"::@=********************************&O::",
"::@=********************************&O::",
"::@=********************************&O::",
"::@=********************************&O::",
"::@=********************************&O::",
"::@=********************************&O::",
"::@=********************************&O::",
"::@=********************************&O::",
"::@=********************************&O::",
"::@=********************************&O::",
"::@=********************************&O::",
"::@=********************************&O::",
"::@=********************************&O::",
"::@=********************************&O::",
"::@-*******************************=&O::",
"::@*&&&&&&&&&&&&&&&&&&&&&&&&&&&&&&&&%o::",
"::.+++++++++++++++++++++++++++++++++O ::",
"::::::::::::::::::::::::::::::::::::::::",
"::::::::::::::::::::::::::::::::::::::::"
};
