/* XPM */
static char *result[] = {
/* columns rows colors chars-per-pixel */
"40 40 156 2 ",
"   c #464646",
".  c #4E4A4A",
"X  c #534F4F",
"o  c #534E4E",
"O  c #524E4E",
"+  c #4A4949",
"@  c gray25",
"#  c #756868",
"$  c #807272",
"%  c #7F7171",
"&  c #7F7172",
"*  c #807171",
"=  c #7D7171",
"-  c #666363",
";  c #444444",
":  c #8D7C7C",
">  c #8C7C7C",
",  c #8C7B7B",
"<  c #907877",
"1  c #8E7A7A",
"2  c #8B7C7D",
"3  c #8B7C7C",
"4  c #897B7B",
"5  c #6F6C6C",
"6  c #484848",
"7  c #8B7B7B",
"8  c #8C7A7A",
"9  c #A76459",
"0  c #B35D4E",
"q  c #9E6C65",
"w  c #907775",
"e  c #8B7B7C",
"r  c #887A7A",
"t  c #6F6B6B",
"y  c #8B7A7A",
"u  c #AA5B4D",
"i  c #CE462D",
"p  c #CE4A33",
"a  c #C05644",
"s  c #A8665B",
"d  c #957470",
"f  c #8A7C7C",
"g  c #A85B4E",
"h  c #CD452D",
"j  c #D7462D",
"k  c #DC472D",
"l  c #D84930",
"z  c #C9513C",
"x  c #B25F52",
"c  c #9B6F69",
"v  c #8E7977",
"b  c #A95B4E",
"n  c #CD462D",
"m  c #D6462D",
"M  c #DC482E",
"N  c #DA482E",
"B  c #D04D36",
"V  c #BB5948",
"C  c #A36960",
"Z  c #927572",
"A  c #8B7B7A",
"S  c #8A7B7C",
"D  c #CE452D",
"F  c #DD482D",
"G  c #D54A31",
"H  c #C4533F",
"J  c #AD6256",
"K  c #97716C",
"L  c #8D7A79",
"P  c #D9492F",
"I  c #CC4F39",
"U  c #B75C4D",
"Y  c #9F6C64",
"T  c #D6472D",
"R  c #DD472D",
"E  c #DB472D",
"W  c #D34B33",
"Q  c #C15644",
"!  c #95736F",
"~  c #DD482E",
"^  c #C9503B",
"/  c #B25F51",
"(  c #9C6E68",
")  c #8F7877",
"_  c #DB482D",
"`  c #D04C36",
"'  c #B45B4D",
"]  c #94736F",
"[  c #CF4D36",
"{  c #BA5949",
"}  c #A26961",
"|  c #8F7775",
" . c #D64A31",
".. c #C7523E",
"X. c #B06053",
"o. c #9A6F6A",
"O. c #8E7877",
"+. c #DB482E",
"@. c #D24C34",
"#. c #BE5746",
"$. c #A6675D",
"%. c #937471",
"&. c #D8492F",
"*. c #CB503A",
"=. c #B45E4F",
"-. c #9D6D66",
";. c #8F7876",
":. c #DC482D",
">. c #D44B33",
",. c #C35542",
"<. c #AA6459",
"1. c #96726E",
"2. c #8C7A79",
"3. c #CE4E37",
"4. c #B95A4A",
"5. c #A16A62",
"6. c #907774",
"7. c #A95B4D",
"8. c #AF6154",
"9. c #99706B",
"0. c #8E7978",
"q. c #8A7B7B",
"w. c #A75C4E",
"e. c #C64B34",
"r. c #B95746",
"t. c #A5675E",
"y. c #937472",
"u. c #A17972",
"i. c #A27770",
"p. c #8E7776",
"a. c #9F9392",
"s. c #998D8D",
"d. c #8A7A7A",
"f. c #998D8C",
"g. c #998C8C",
"h. c #9E9291",
"j. c #998C8B",
"k. c #9E9292",
"l. c #9C908F",
"z. c #988B8A",
"x. c #7E7171",
"c. c #897A7A",
"v. c #8F8282",
"b. c #8F8281",
"n. c #867A7A",
"m. c #6E6B6B",
"M. c #4C4B4B",
"N. c #6B6767",
"B. c #757070",
"V. c #747070",
"C. c #676666",
"Z. c #494949",
"A. c gray31",
"S. c #4B4B4B",
"D. c gray23",
"F. c white",
/* pixels */
"  . X o o o o o o o o o o o o o o o o o o o o o o o o o o o o o o o o o o O + @ ",
". # $ % % % % % % % % & % % % % % % % % % % % % % % % % % % % % % % % % * = - ; ",
"X $ : > > > > > > > , < 1 2 3 > > > > > > > > > > > > > > > > > > > > > > 4 5 6 ",
"o % > 7 7 7 7 7 7 7 8 9 0 q w 7 e 7 7 7 7 7 7 7 7 7 7 7 7 7 7 7 7 7 7 7 7 r t 6 ",
"o % > 7 7 7 7 7 7 7 y u i p a s d 8 f 7 7 7 7 7 7 7 7 7 7 7 7 7 7 7 7 7 7 r t 6 ",
"o % > 7 7 7 7 7 7 7 y g h j k l z x c v f e 7 7 7 7 7 7 7 7 7 7 7 7 7 7 7 r t 6 ",
"o % > 7 7 7 7 7 7 7 y b n m M M k N B V C Z A S 7 7 7 7 7 7 7 7 7 7 7 7 7 r t 6 ",
"o % > 7 7 7 7 7 7 7 y b D m M M M M F k G H J K L f e 7 7 7 7 7 7 7 7 7 7 r t 6 ",
"o % > 7 7 7 7 7 7 7 y b D m M M M M M M M k P I U Y w 7 e 7 7 7 7 7 7 7 7 r t 6 ",
"o % > 7 7 7 7 7 7 7 y b i T M M M M M M M M M R E W Q s ! 8 f 7 7 7 7 7 7 r t 6 ",
"o % > 7 7 7 7 7 7 7 y b i T M M M M M M M M M M M ~ k l ^ / ( ) 7 7 7 7 7 r t 6 ",
"o % > 7 7 7 7 7 7 7 y b i T M M M M M M M M M M M M M M R _ ` ' ] 7 7 7 7 r t 6 ",
"o % > 7 7 7 7 7 7 7 y b i T M M M M M M M M M M M M M R N [ { } | 7 7 7 7 r t 6 ",
"o % > 7 7 7 7 7 7 7 y b i T M M M M M M M M M M F k  ...X.o.O.S 7 7 7 7 7 r t 6 ",
"o % > 7 7 7 7 7 7 7 y b i T M M M M M M M M R +.@.#.$.%.A f 7 7 7 7 7 7 7 r t 6 ",
"o % > 7 7 7 7 7 7 7 y b i T M M M M M ~ k &.*.=.-.;.7 S 7 7 7 7 7 7 7 7 7 r t 6 ",
"o % > 7 7 7 7 7 7 7 y b i T M M M :.+.>.,.<.1.2.f 7 7 7 7 7 7 7 7 7 7 7 7 r t 6 ",
"o % > 7 7 7 7 7 7 7 y b n T ~ R N 3.4.5.6.7 f 7 7 7 7 7 7 7 7 7 7 7 7 7 7 r t 6 ",
"o % > 7 7 7 7 7 7 7 y 7.D m  ...8.9.0.q.7 7 7 7 7 7 7 7 7 7 7 7 7 7 7 7 7 r t 6 ",
"o % > 7 7 7 7 7 7 7 y w.e.r.t.y.7 f 7 7 7 7 7 7 7 7 7 7 7 7 7 7 7 7 7 7 7 r t 6 ",
"o % > 7 7 7 7 7 7 7 y u.i.p.q.S 7 7 7 7 7 7 7 7 7 7 7 7 7 7 7 7 7 7 7 7 7 r t 6 ",
"o % > 7 7 7 7 7 7 7 7 a.s.d.7 7 7 7 7 7 7 7 7 7 7 7 7 7 7 7 7 7 7 7 7 7 7 r t 6 ",
"o % > 7 7 7 7 7 7 7 7 a.f.d.7 7 7 7 7 7 7 7 7 7 7 7 7 7 7 7 7 7 7 7 7 7 7 r t 6 ",
"o % > 7 7 7 7 7 7 7 7 a.f.d.7 7 7 7 7 7 7 7 7 7 7 7 7 7 7 7 7 7 7 7 7 7 7 r t 6 ",
"o % > 7 7 7 7 7 7 7 7 a.f.d.7 7 7 7 7 7 7 7 7 7 7 7 7 7 7 7 7 7 7 7 7 7 7 r t 6 ",
"o % > 7 7 7 7 7 7 7 7 a.f.d.7 7 7 7 7 7 7 7 7 7 7 7 7 7 7 7 7 7 7 7 7 7 7 r t 6 ",
"o % > 7 7 7 7 7 7 7 7 a.f.d.7 7 7 7 7 7 7 7 7 7 7 7 7 7 7 7 7 7 7 7 7 7 7 r t 6 ",
"o % > 7 7 7 7 7 7 7 7 a.f.d.7 7 7 7 7 7 7 7 7 7 7 7 7 7 7 7 7 7 7 7 7 7 7 r t 6 ",
"o % > 7 7 7 7 7 7 7 7 a.g.d.7 7 7 7 7 7 7 7 7 7 7 7 7 7 7 7 7 7 7 7 7 7 7 r t 6 ",
"o % > 7 7 7 7 7 7 7 7 h.j.d.7 7 7 7 7 7 7 7 7 7 7 7 7 7 7 7 7 7 7 7 7 7 7 r t 6 ",
"o % > 7 7 7 7 7 7 7 7 h.j.d.7 7 7 7 7 7 7 7 7 7 7 7 7 7 7 7 7 7 7 7 7 7 7 r t 6 ",
"o % > 7 7 7 7 7 7 7 7 k.g.d.7 7 7 7 7 7 7 7 7 7 7 7 7 7 7 7 7 7 7 7 7 7 7 r t 6 ",
"o % > 7 7 7 7 7 7 7 7 h.g.d.7 7 7 7 7 7 7 7 7 7 7 7 7 7 7 7 7 7 7 7 7 7 7 r t 6 ",
"o % > 7 7 7 7 7 7 7 7 h.j.d.7 7 7 7 7 7 7 7 7 7 7 7 7 7 7 7 7 7 7 7 7 7 7 r t 6 ",
"o % > 7 7 7 7 7 7 7 7 h.j.d.7 7 7 7 7 7 7 7 7 7 7 7 7 7 7 7 7 7 7 7 7 7 7 r t 6 ",
"o % > 7 7 7 7 7 7 7 7 k.g.d.7 7 7 7 7 7 7 7 7 7 7 7 7 7 7 7 7 7 7 7 7 7 7 r t 6 ",
"o * > 7 7 7 7 7 7 7 7 l.z.d.7 7 7 7 7 7 7 7 7 7 7 7 7 7 7 7 7 7 7 7 7 7 7 r t 6 ",
"O x.q.4 4 4 4 4 4 4 c.v.b.c.4 4 4 4 4 4 4 4 4 4 4 4 4 4 4 4 4 4 4 4 4 4 4 n.m.6 ",
"M.N.B.V.V.V.V.V.V.V.V.B.B.V.V.V.V.V.V.V.V.V.V.V.V.V.V.V.V.V.V.V.V.V.V.V.V.V.C.  ",
"@ Z.A.A.A.A.A.A.A.A.A.A.A.A.A.A.A.A.A.A.A.A.A.A.A.A.A.A.A.A.A.A.A.A.A.A.A.A.S.D."
};
