/* XPM */
static char *result[] = {
/* columns rows colors chars-per-pixel */
"64 64 190 2 ",
"   c #515151",
".  c #3F3F3F",
"X  c #484747",
"o  c #464646",
"O  c gray26",
"+  c gray25",
"@  c #454040",
"#  c #615858",
"$  c #5E5757",
"%  c #525151",
"&  c gray20",
"*  c #8A7A7A",
"=  c #8B7B7B",
"-  c #857979",
";  c #716F6F",
":  c gray35",
">  c gray23",
",  c #8B7B7C",
"<  c #727070",
"1  c #3C3B3C",
"2  c #8C7A7A",
"3  c #947370",
"4  c #8F7876",
"5  c #8A7C7C",
"6  c #726F6F",
"7  c #8D7978",
"8  c #B55A4A",
"9  c #BE5744",
"0  c #A5675C",
"q  c #937571",
"w  c #8C7978",
"e  c #AD5544",
"r  c #D2472E",
"t  c #CB472F",
"y  c #C54E39",
"u  c #B05F51",
"i  c #99706A",
"p  c #8D7A78",
"a  c #A95343",
"s  c #D2462D",
"d  c #CB452D",
"f  c #D7462C",
"g  c #DA472D",
"h  c #CF4B34",
"j  c #BB5846",
"k  c #A26A60",
"l  c #917774",
"z  c #D1462D",
"x  c #D7462D",
"c  c #DC482E",
"v  c #DC482D",
"b  c #DC472D",
"n  c #D54930",
"m  c #C4523E",
"M  c #AB6256",
"N  c #96726E",
"B  c #CB452E",
"V  c #D9472D",
"C  c #CC4D36",
"Z  c #B55B4C",
"A  c #9D6C65",
"S  c #AA5343",
"D  c #CB462E",
"F  c #DB472D",
"G  c #D24931",
"H  c #BF5442",
"J  c #A6655B",
"K  c #937471",
"L  c #D7482E",
"P  c #C74F39",
"I  c #AF5E50",
"U  c #996F69",
"Y  c #D04B33",
"T  c #BA5746",
"R  c #A2685F",
"E  c #907673",
"W  c #A95344",
"Q  c #D5482F",
"!  c #C4513D",
"~  c #AC6155",
"^  c #96726D",
"/  c #8C7A79",
"(  c #AA5344",
")  c #CC4C36",
"_  c #B55A4B",
"`  c #9E6B64",
"'  c #CB462D",
"]  c #D34931",
"[  c #C05441",
"{  c #A7655A",
"}  c #937470",
"|  c #8B7B7A",
" . c #D7472E",
".. c #C94E39",
"X. c #B15E4F",
"o. c #9A6E68",
"O. c #D1472D",
"+. c #BB5646",
"@. c #917673",
"#. c #D2472D",
"$. c #D7472D",
"%. c #D6482F",
"&. c #C34F3C",
"*. c #A3655B",
"=. c #B25C4E",
"-. c #996E68",
";. c #CC462E",
":. c #C15340",
">. c #A76459",
",. c #937370",
"<. c #D9472E",
"1. c #B65A4A",
"2. c #8F7775",
"3. c #8A7B7C",
"4. c #DD482D",
"5. c #D54830",
"6. c #C4513C",
"7. c #AB6155",
"8. c #96716C",
"9. c #DD472D",
"0. c #BB5746",
"q. c #A26860",
"w. c #D7482F",
"e. c #C84F39",
"r. c #B05E4F",
"t. c #BF5441",
"y. c #CD4C36",
"u. c #B55B4B",
"i. c #9D6C64",
"p. c #8E7876",
"a. c #A95243",
"s. c #DB472C",
"d. c #AA6155",
"f. c #CA462D",
"g. c #D04B34",
"h. c #B95847",
"j. c #A16960",
"k. c #907674",
"l. c #DD482E",
"z. c #D6452C",
"x. c #D24A32",
"c. c #A85242",
"v. c #CE462D",
"b. c #C04C37",
"n. c #B15A4C",
"m. c #8E7877",
"M. c #8B7978",
"N. c #A7675B",
"B. c #B26E61",
"V. c #94726E",
"C. c #8A7979",
"Z. c #A69895",
"A. c #A79E9C",
"S. c #8A7B7B",
"D. c #A59A99",
"F. c #A89E9D",
"G. c #A59A9A",
"H. c #A69A9A",
"J. c #A49A99",
"K. c #A79D9C",
"L. c #A49998",
"P. c #A49999",
"I. c #A89D9C",
"U. c #A49A98",
"Y. c #A39998",
"T. c #8B7A7A",
"R. c #968988",
"E. c #9C908F",
"W. c #5F5757",
"Q. c #887A7A",
"!. c #897C7C",
"~. c #8E8281",
"^. c #837878",
"/. c gray28",
"(. c #555353",
"). c #767272",
"_. c #777373",
"`. c #757272",
"'. c #6F6E6E",
"]. c #444444",
"[. c gray38",
"{. c #626262",
"}. c #606060",
"|. c #4E4E4E",
" X c gray22",
".X c #434343",
"XX c #343434",
"oX c #414141",
"OX c #353535",
"+X c white",
/* pixels */
"  . X X X X X X X X X X X X X X X X X X X X X X X X X X X X X X X X X X X X X X X X X X X X X X X X X X X X X X X X X X X o O o ",
"+ @ # # # # # # # # # # # # # # # # # # # # # # # # # # # # # # # # # # # # # # # # # # # # # # # # # # # # # # # # # # $ % O & ",
"X # * = = = = = = = = = = = = = = = = = = = = = = = = = = = = = = = = = = = = = = = = = = = = = = = = = = = = = = = = = - ; : > ",
"X # = = = = = = = = = = = = = = = = , = = = = = = = = = = = = = = = = = = = = = = = = = = = = = = = = = = = = = = = = = - < : 1 ",
"X # = = = = = = = = = = = = = = = 2 3 4 5 , = = = = = = = = = = = = = = = = = = = = = = = = = = = = = = = = = = = = = = - 6 : > ",
"X # = = = = = = = = = = = = = = = 7 8 9 0 q = 5 = = = = = = = = = = = = = = = = = = = = = = = = = = = = = = = = = = = = - 6 : > ",
"X # = = = = = = = = = = = = = = = w e r t y u i p 5 = = = = = = = = = = = = = = = = = = = = = = = = = = = = = = = = = = - 6 : > ",
"X # = = = = = = = = = = = = = = = w a s d f g h j k l = 5 = = = = = = = = = = = = = = = = = = = = = = = = = = = = = = = - 6 : > ",
"X # = = = = = = = = = = = = = = = w a z d x c v b n m M N 2 5 = = = = = = = = = = = = = = = = = = = = = = = = = = = = = - 6 : > ",
"X # = = = = = = = = = = = = = = = w a z B x c c c c b V C Z A 4 5 , = = = = = = = = = = = = = = = = = = = = = = = = = = - 6 : > ",
"X # = = = = = = = = = = = = = = = w S z D x c c c c c c c F G H J K = 5 = = = = = = = = = = = = = = = = = = = = = = = = - 6 : > ",
"X # = = = = = = = = = = = = = = = w S z D x c c c c c c c c c b L P I U 7 5 = = = = = = = = = = = = = = = = = = = = = = - 6 : > ",
"X # = = = = = = = = = = = = = = = w S s d x c c c c c c c c c c c b g Y T R E = 5 = = = = = = = = = = = = = = = = = = = - 6 : > ",
"X # = = = = = = = = = = = = = = = w W z d x c c c c c c c c c c c c c c F Q ! ~ ^ / 5 = = = = = = = = = = = = = = = = = - 6 : > ",
"X # = = = = = = = = = = = = = = = w ( s D x c c c c c c c c c c c c c c c c b V ) _ ` 4 5 , = = = = = = = = = = = = = = - 6 : > ",
"X # = = = = = = = = = = = = = = = w ( s ' x c c c c c c c c c c c c c c c c c c b b ] [ { } | 5 = = = = = = = = = = = = - 6 : > ",
"X # = = = = = = = = = = = = = = = w ( s D x c c c c c c c c c c c c c c c c c c c c c b  ...X.o.7 5 , = = = = = = = = = - 6 : > ",
"X # = = = = = = = = = = = = = = = w S O.D x c c c c c c c c c c c c c c c c c c c c c c c b F Y +.R @.= = = = = = = = = - 6 : > ",
"X # = = = = = = = = = = = = = = = w ( #.D $.c c c c c c c c c c c c c c c c c c c c c c c c c v b %.&.*.w = = = = = = = - 6 : > ",
"X # = = = = = = = = = = = = = = = w ( #.D $.c c c c c c c c c c c c c c c c c c c c c c c c v b L ..=.-.2 = = = = = = = - 6 : > ",
"X # = = = = = = = = = = = = = = = w S #.;.x c c c c c c c c c c c c c c c c c c c c c c v F ] :.>.,.| 5 = = = = = = = = - 6 : > ",
"X # = = = = = = = = = = = = = = = w a #.;.x c c c c c c c c c c c c c c c c c c c c b <.) 1.` 2.5 3.= = = = = = = = = = - 6 : > ",
"X # = = = = = = = = = = = = = = = w W #.;.x c c c c c c c c c c c c c c c c c 4.b 5.6.7.8./ 5 = = = = = = = = = = = = = - 6 : > ",
"X # = = = = = = = = = = = = = = = w W #.;.x c c c c c c c c c c c c c c c 9.F Y 0.q.@.= 5 = = = = = = = = = = = = = = = - 6 : > ",
"X # = = = = = = = = = = = = = = = w W #.;.x c c c c c c c c c c c c c b w.e.r.U 7 5 = = = = = = = = = = = = = = = = = = - 6 : > ",
"X # = = = = = = = = = = = = = = = w a #.D x c c c c c c c c c c v F ] t.J } | 5 = = = = = = = = = = = = = = = = = = = = - 6 : > ",
"X # = = = = = = = = = = = = = = = w S s ' x c c c c c c c c b <.y.u.i.p.5 , = = = = = = = = = = = = = = = = = = = = = = - 6 : > ",
"X # = = = = = = = = = = = = = = = w a.z ' x c c c c c c s.Q ! d.^ 2 5 = = = = = = = = = = = = = = = = = = = = = = = = = - 6 : > ",
"X # = = = = = = = = = = = = = = = w S z f.x c c c 9.g g.h.j.k.= 5 = = = = = = = = = = = = = = = = = = = = = = = = = = = - 6 : > ",
"X # = = = = = = = = = = = = = = = w S z D x l.b w.e.u U 7 5 = = = = = = = = = = = = = = = = = = = = = = = = = = = = = = - 6 : > ",
"X # = = = = = = = = = = = = = = = w a z d z.x.H J K = 5 = = = = = = = = = = = = = = = = = = = = = = = = = = = = = = = = - 6 : > ",
"X # = = = = = = = = = = = = = = = w c.v.b.n.A m.5 , = = = = = = = = = = = = = = = = = = = = = = = = = = = = = = = = = = - 6 : > ",
"X # = = = = = = = = = = = = = = = M.N.B.V.2 5 = = = = = = = = = = = = = = = = = = = = = = = = = = = = = = = = = = = = = - 6 : > ",
"X # = = = = = = = = = = = = = = = C.Z.A.S.= = = = = = = = = = = = = = = = = = = = = = = = = = = = = = = = = = = = = = = - 6 : > ",
"X # = = = = = = = = = = = = = = = * D.F.* = = = = = = = = = = = = = = = = = = = = = = = = = = = = = = = = = = = = = = = - 6 : > ",
"X # = = = = = = = = = = = = = = = * D.F.* = = = = = = = = = = = = = = = = = = = = = = = = = = = = = = = = = = = = = = = - 6 : > ",
"X # = = = = = = = = = = = = = = = * D.F.* = = = = = = = = = = = = = = = = = = = = = = = = = = = = = = = = = = = = = = = - 6 : > ",
"X # = = = = = = = = = = = = = = = * D.F.* = = = = = = = = = = = = = = = = = = = = = = = = = = = = = = = = = = = = = = = - 6 : > ",
"X # = = = = = = = = = = = = = = = * G.F.* = = = = = = = = = = = = = = = = = = = = = = = = = = = = = = = = = = = = = = = - 6 : > ",
"X # = = = = = = = = = = = = = = = * G.F.* = = = = = = = = = = = = = = = = = = = = = = = = = = = = = = = = = = = = = = = - 6 : > ",
"X # = = = = = = = = = = = = = = = * H.F.* = = = = = = = = = = = = = = = = = = = = = = = = = = = = = = = = = = = = = = = - 6 : > ",
"X # = = = = = = = = = = = = = = = * D.F.* = = = = = = = = = = = = = = = = = = = = = = = = = = = = = = = = = = = = = = = - 6 : > ",
"X # = = = = = = = = = = = = = = = * D.F.* = = = = = = = = = = = = = = = = = = = = = = = = = = = = = = = = = = = = = = = - 6 : > ",
"X # = = = = = = = = = = = = = = = * G.F.* = = = = = = = = = = = = = = = = = = = = = = = = = = = = = = = = = = = = = = = - 6 : > ",
"X # = = = = = = = = = = = = = = = * H.F.* = = = = = = = = = = = = = = = = = = = = = = = = = = = = = = = = = = = = = = = - 6 : > ",
"X # = = = = = = = = = = = = = = = * D.F.* = = = = = = = = = = = = = = = = = = = = = = = = = = = = = = = = = = = = = = = - 6 : > ",
"X # = = = = = = = = = = = = = = = * J.K.* = = = = = = = = = = = = = = = = = = = = = = = = = = = = = = = = = = = = = = = - 6 : > ",
"X # = = = = = = = = = = = = = = = * L.K.* = = = = = = = = = = = = = = = = = = = = = = = = = = = = = = = = = = = = = = = - 6 : > ",
"X # = = = = = = = = = = = = = = = * L.K.* = = = = = = = = = = = = = = = = = = = = = = = = = = = = = = = = = = = = = = = - 6 : > ",
"X # = = = = = = = = = = = = = = = * P.I.* = = = = = = = = = = = = = = = = = = = = = = = = = = = = = = = = = = = = = = = - 6 : > ",
"X # = = = = = = = = = = = = = = = * P.K.* = = = = = = = = = = = = = = = = = = = = = = = = = = = = = = = = = = = = = = = - 6 : > ",
"X # = = = = = = = = = = = = = = = * J.K.* = = = = = = = = = = = = = = = = = = = = = = = = = = = = = = = = = = = = = = = - 6 : > ",
"X # = = = = = = = = = = = = = = = * L.K.* = = = = = = = = = = = = = = = = = = = = = = = = = = = = = = = = = = = = = = = - 6 : > ",
"X # = = = = = = = = = = = = = = = * L.K.* = = = = = = = = = = = = = = = = = = = = = = = = = = = = = = = = = = = = = = = - 6 : > ",
"X # = = = = = = = = = = = = = = = * U.K.* = = = = = = = = = = = = = = = = = = = = = = = = = = = = = = = = = = = = = = = - 6 : > ",
"X # = = = = = = = = = = = = = = = * L.K.* = = = = = = = = = = = = = = = = = = = = = = = = = = = = = = = = = = = = = = = - 6 : > ",
"X # = = = = = = = = = = = = = = = * L.K.* = = = = = = = = = = = = = = = = = = = = = = = = = = = = = = = = = = = = = = = - 6 : > ",
"X # = = = = = = = = = = = = = = = * J.K.* = = = = = = = = = = = = = = = = = = = = = = = = = = = = = = = = = = = = = = = - 6 : > ",
"X # = = = = = = = = = = = = = = = * Y.K.* = = = = = = = = = = = = = = = = = = = = = = = = = = = = = = = = = = = = = = = - 6 : > ",
"X # = = = = = = = = = = = = = = = T.R.E.= = = = = = = = = = = = = = = = = = = = = = = = = = = = = = = = = = = = = = = = - 6 : > ",
"X W.Q.Q.Q.Q.Q.Q.Q.Q.Q.Q.Q.Q.Q.Q.Q.Q.!.~.Q.Q.Q.Q.Q.Q.Q.Q.Q.Q.Q.Q.Q.Q.Q.Q.Q.Q.Q.Q.Q.Q.Q.Q.Q.Q.Q.Q.Q.Q.Q.Q.Q.Q.Q.Q.Q.Q.Q.Q.^.; : > ",
"/.(.)._._._._._._._._._._._._._._._._._._._._._._._._._._._._._._._._._._._._._._._._._._._._._._._._._._._._._._._._._.`.'.: > ",
"]./.[.{.{.{.{.{.{.{.{.{.{.{.{.{.{.{.{.{.{.{.{.{.{.{.{.{.{.{.{.{.{.{.{.{.{.{.{.{.{.{.{.{.{.{.{.{.{.{.{.{.{.{.{.{.{.{.{.{.{.}.|. X",
".XXX+ oXoXoXoXoXoXoXoXoXoXoXoXoXoXoXoXoXoXoXoXoXoXoXoXoXoXoXoXoXoXoXoXoXoXoXoXoXoXoXoXoXoXoXoXoXoXoXoXoXoXoXoXoXoXoXoXoXoX+  XOX"
};
