/* XPM */
static char *result[] = {
/* columns rows colors chars-per-pixel */
"40 40 22 1 ",
"  c #1E1E1E",
". c #282828",
"X c #3D3939",
"o c #3C3C3C",
"O c #3C3D3D",
"+ c gray24",
"@ c #3D3E3E",
"# c #3E3E3E",
"$ c #545252",
"% c #605757",
"& c #615757",
"* c #615858",
"= c #625858",
"- c #625959",
"; c #7B7A7A",
": c #827D7D",
"> c #837E7E",
", c #847F7F",
"< c #988686",
"1 c #9A8888",
"2 c #9C8A8A",
"3 c None",
/* pixels */
"3333333333333333333333333333333333333333",
"3333333333333333333333333333333333333333",
"33X-&&&&&&&&&&&&&&&&&&&&&&&&&&&&&&&*$.33",
"33=211111111111111111111111111111111>+33",
"33%1<<<<<<<<<<<<<<<<<<<<<<<<<<<<<<<<:o33",
"33%1<<<<<<<<<<<<<<<<<<<<<<<<<<<<<<<<:o33",
"33%1<<<<<<<<<<<<<<<<<<<<<<<<<<<<<<<<:o33",
"33%1<<<<<<<<<<<<<<<<<<<<<<<<<<<<<<<<:o33",
"33%1<<<<<<<<<<<<<<<<<<<<<<<<<<<<<<<<:o33",
"33%1<<<<<<<<<<<<<<<<<<<<<<<<<<<<<<<<:o33",
"33%1<<<<<<<<<<<<<<<<<<<<<<<<<<<<<<<<:o33",
"33%1<<<<<<<<<<<<<<<<<<<<<<<<<<<<<<<<:o33",
"33%1<<<<<<<<<<<<<<<<<<<<<<<<<<<<<<<<:o33",
"33%1<<<<<<<<<<<<<<<<<<<<<<<<<<<<<<<<:o33",
"33%1<<<<<<<<<<<<<<<<<<<<<<<<<<<<<<<<:o33",
"33%1<<<<<<<<<<<<<<<<<<<<<<<<<<<<<<<<:o33",
"33%1<<<<<<<<<<<<<<<<<<<<<<<<<<<<<<<<:o33",
"33%1<<<<<<<<<<<<<<<<<<<<<<<<<<<<<<<<:o33",
"33%1<<<<<<<<<<<<<<<<<<<<<<<<<<<<<<<<:o33",
"33%1<<<<<<<<<<<<<<<<<<<<<<<<<<<<<<<<:o33",
"33%1<<<<<<<<<<<<<<<<<<<<<<<<<<<<<<<<:o33",
"33%1<<<<<<<<<<<<<<<<<<<<<<<<<<<<<<<<:o33",
"33%1<<<<<<<<<<<<<<<<<<<<<<<<<<<<<<<<:o33",
"33%1<<<<<<<<<<<<<<<<<<<<<<<<<<<<<<<<:o33",
"33%1<<<<<<<<<<<<<<<<<<<<<<<<<<<<<<<<:o33",
"33%1<<<<<<<<<<<<<<<<<<<<<<<<<<<<<<<<:o33",
"33%1<<<<<<<<<<<<<<<<<<<<<<<<<<<<<<<<:o33",
"33%1<<<<<<<<<<<<<<<<<<<<<<<<<<<<<<<<:o33",
"33%1<<<<<<<<<<<<<<<<<<<<<<<<<<<<<<<<:o33",
"33%1<<<<<<<<<<<<<<<<<<<<<<<<<<<<<<<<:o33",
"33%1<<<<<<<<<<<<<<<<<<<<<<<<<<<<<<<<:o33",
"33%1<<<<<<<<<<<<<<<<<<<<<<<<<<<<<<<<:o33",
"33%1<<<<<<<<<<<<<<<<<<<<<<<<<<<<<<<<:o33",
"33%1<<<<<<<<<<<<<<<<<<<<<<<<<<<<<<<<:o33",
"33%1<<<<<<<<<<<<<<<<<<<<<<<<<<<<<<<<:o33",
"33%1<<<<<<<<<<<<<<<<<<<<<<<<<<<<<<<<:O33",
"33$,::::::::::::::::::::::::::::::::;o33",
"33.#+++++++++++++++++++++++++++++++@+ 33",
"3333333333333333333333333333333333333333",
"3333333333333333333333333333333333333333"
};
